sporting_grotesque_normal_latin_greek.ufo
<glyph name="exclam" format="1">
  <advance width="290"/>
  <unicode hex="0021"/>
  <outline>
    <contour>
      <point x="80" y="777" type="line"/>
      <point x="90" y="240" type="line"/>
      <point x="200" y="240" type="line"/>
      <point x="210" y="777" type="line"/>
    </contour>
    <contour>
      <point x="80" y="0" type="line"/>
      <point x="210" y="0" type="line"/>
      <point x="210" y="145" type="line"/>
      <point x="80" y="145" type="line"/>
    </contour>
  </outline>
</glyph>
<glyph name="numbersign" format="1">
  <advance width="650"/>
  <unicode hex="0023"/>
  <outline>
    <contour>
      <point x="557" y="283" type="line"/>
      <point x="447" y="283" type="line"/>
      <point x="480" y="433" type="line"/>
      <point x="610" y="433" type="line"/>
      <point x="610" y="483" type="line"/>
      <point x="491" y="483" type="line"/>
      <point x="542" y="715" type="line"/>
      <point x="486" y="715" type="line"/>
      <point x="435" y="483" type="line"/>
      <point x="258" y="483" type="line"/>
      <point x="309" y="715" type="line"/>
      <point x="253" y="715" type="line" name="hr00"/>
      <point x="202" y="483" type="line"/>
      <point x="91" y="483" type="line"/>
      <point x="91" y="433" type="line"/>
      <point x="191" y="433" type="line"/>
      <point x="159" y="283" type="line"/>
      <point x="40" y="283" type="line"/>
      <point x="40" y="233" type="line"/>
      <point x="148" y="233" type="line"/>
      <point x="97" y="0" type="line"/>
      <point x="152" y="0" type="line"/>
      <point x="203" y="233" type="line"/>
      <point x="381" y="233" type="line"/>
      <point x="330" y="0" type="line"/>
      <point x="384" y="0" type="line"/>
      <point x="435" y="233" type="line"/>
      <point x="557" y="233" type="line"/>
    </contour>
    <contour>
      <point x="214" y="283" type="line"/>
      <point x="247" y="433" type="line"/>
      <point x="424" y="433" type="line"/>
      <point x="392" y="283" type="line"/>
    </contour>
  </outline>
</glyph>
<glyph name="dollar" format="1">
  <advance width="800"/>
  <unicode hex="0024"/>
  <outline>
    <contour>
      <point x="421" y="-223" type="line"/>
      <point x="421" y="-14" type="line"/>
      <point x="434" y="-14" type="line"/>
      <point x="622" y="-14"/>
      <point x="767" y="62"/>
      <point x="767" y="208" type="curve"/>
      <point x="767" y="309"/>
      <point x="708" y="394"/>
      <point x="539" y="432" type="curve" smooth="yes"/>
      <point x="421" y="458" type="line"/>
      <point x="421" y="690" type="line"/>
      <point x="608" y="669"/>
      <point x="596" y="523"/>
      <point x="596" y="523" type="curve"/>
      <point x="730" y="559" type="line"/>
      <point x="730" y="559"/>
      <point x="723" y="773"/>
      <point x="421" y="790" type="curve"/>
      <point x="421" y="1012" type="line"/>
      <point x="378" y="1012" type="line"/>
      <point x="378" y="791" type="line"/>
      <point x="164" y="791"/>
      <point x="69" y="685"/>
      <point x="69" y="568" type="curve"/>
      <point x="69" y="475"/>
      <point x="134" y="401"/>
      <point x="267" y="370" type="curve" smooth="yes"/>
      <point x="378" y="344" type="line"/>
      <point x="378" y="88" type="line"/>
      <point x="146" y="113"/>
      <point x="167" y="302"/>
      <point x="167" y="302" type="curve"/>
      <point x="33" y="263" type="line"/>
      <point x="38" y="165"/>
      <point x="119" y="8"/>
      <point x="378" y="-12" type="curve"/>
      <point x="378" y="-223" type="line"/>
    </contour>
    <contour>
      <point x="341" y="476" type="line" smooth="yes"/>
      <point x="255" y="495"/>
      <point x="204" y="521"/>
      <point x="204" y="580" type="curve"/>
      <point x="204" y="646"/>
      <point x="271" y="692"/>
      <point x="376" y="692" type="curve"/>
      <point x="378" y="692" type="line"/>
      <point x="378" y="468" type="line"/>
    </contour>
    <contour>
      <point x="456" y="326" type="line" smooth="yes"/>
      <point x="570" y="299"/>
      <point x="632" y="277"/>
      <point x="632" y="202" type="curve"/>
      <point x="632" y="138"/>
      <point x="557" y="85"/>
      <point x="431" y="85" type="curve"/>
      <point x="421" y="85" type="line"/>
      <point x="421" y="334" type="line"/>
    </contour>
  </outline>
</glyph>
<glyph name="ampersand" format="1">
  <advance width="843"/>
  <unicode hex="0026"/>
  <outline>
    <contour>
      <point x="60" y="682" type="line"/>
      <point x="159" y="594"/>
      <point x="246" y="500"/>
      <point x="322" y="407" type="curve"/>
      <point x="20" y="95" type="line"/>
      <point x="20" y="0" type="line"/>
      <point x="590" y="0" type="line"/>
      <point x="666" y="-141"/>
      <point x="702" y="-238"/>
      <point x="702" y="-238" type="curve"/>
      <point x="834" y="-198" type="line"/>
      <point x="834" y="-198"/>
      <point x="796" y="-118"/>
      <point x="727" y="0" type="curve"/>
      <point x="843" y="0" type="line"/>
      <point x="843" y="85" type="line"/>
      <point x="675" y="85" type="line"/>
      <point x="616" y="179"/>
      <point x="542" y="287"/>
      <point x="455" y="395" type="curve"/>
      <point x="733" y="682" type="line"/>
      <point x="733" y="777" type="line"/>
      <point x="60" y="777" type="line"/>
    </contour>
    <contour>
      <point x="169" y="692" type="curve"/>
      <point x="598" y="692" type="line"/>
      <point x="388" y="475" type="line"/>
      <point x="321" y="551"/>
      <point x="248" y="625"/>
    </contour>
    <contour>
      <point x="155" y="85" type="line"/>
      <point x="386" y="323" type="line"/>
      <point x="447" y="240"/>
      <point x="499" y="159"/>
      <point x="542" y="85" type="curve"/>
    </contour>
  </outline>
</glyph>
<glyph name="quotesingle" format="1">
  <advance width="260"/>
  <unicode hex="0027"/>
  <outline>
    <contour>
      <point x="90" y="480" type="line"/>
      <point x="170" y="480" type="line"/>
      <point x="170" y="777" type="line"/>
      <point x="90" y="777" type="line"/>
    </contour>
  </outline>
</glyph>
<glyph name="comma" format="1">
  <advance width="310"/>
  <unicode hex="002C"/>
  <outline>
    <contour>
      <point x="220" y="145" type="line"/>
      <point x="90" y="145" type="line"/>
      <point x="90" y="0" type="line"/>
      <point x="161" y="0" type="line"/>
      <point x="141" y="-97"/>
      <point x="52" y="-150"/>
      <point x="52" y="-150" type="curve"/>
      <point x="140" y="-176" type="line"/>
      <point x="140" y="-176"/>
      <point x="220" y="-98"/>
      <point x="220" y="25" type="curve"/>
    </contour>
  </outline>
</glyph>
<glyph name="hyphen" format="1">
  <advance width="502"/>
  <unicode hex="002D"/>
  <outline>
    <contour>
      <point x="462" y="260" type="line"/>
      <point x="462" y="335" type="line"/>
      <point x="40" y="335" type="line"/>
      <point x="40" y="260" type="line"/>
    </contour>
  </outline>
</glyph>
<glyph name="slash" format="1">
  <advance width="245"/>
  <unicode hex="002F"/>
  <outline>
    <contour>
      <point x="233" y="729" type="line" name="hr00"/>
      <point x="-39" y="-95" type="line"/>
      <point x="10" y="-110" type="line"/>
      <point x="284" y="713" type="line"/>
    </contour>
  </outline>
</glyph>
<glyph name="three" format="1">
  <advance width="800"/>
  <unicode hex="0033"/>
  <outline>
    <contour>
      <point x="387" y="356" type="line"/>
      <point x="502" y="356"/>
      <point x="603" y="326"/>
      <point x="603" y="222" type="curve" smooth="yes"/>
      <point x="603" y="132"/>
      <point x="527" y="85"/>
      <point x="407" y="85" type="curve" smooth="yes"/>
      <point x="169" y="85"/>
      <point x="184" y="294"/>
      <point x="184" y="294" type="curve"/>
      <point x="50" y="255" type="line"/>
      <point x="50" y="255"/>
      <point x="60" y="-14"/>
      <point x="410" y="-14" type="curve" smooth="yes"/>
      <point x="586" y="-14"/>
      <point x="740" y="58"/>
      <point x="740" y="221" type="curve"/>
      <point x="740" y="414"/>
      <point x="525" y="417"/>
      <point x="513" y="417" type="curve"/>
      <point x="524" y="417"/>
      <point x="720" y="421"/>
      <point x="720" y="587" type="curve"/>
      <point x="720" y="700"/>
      <point x="602" y="791"/>
      <point x="422" y="791" type="curve"/>
      <point x="120" y="791"/>
      <point x="91" y="549"/>
      <point x="91" y="549" type="curve"/>
      <point x="225" y="509" type="line"/>
      <point x="225" y="509"/>
      <point x="211" y="692"/>
      <point x="417" y="692" type="curve"/>
      <point x="517" y="692"/>
      <point x="583" y="641"/>
      <point x="583" y="569" type="curve"/>
      <point x="583" y="489"/>
      <point x="505" y="441"/>
      <point x="387" y="441" type="curve"/>
      <point x="337" y="441" type="line"/>
      <point x="337" y="356" type="line"/>
    </contour>
  </outline>
</glyph>
<glyph name="six" format="1">
  <advance width="800"/>
  <unicode hex="0036"/>
  <outline>
    <contour>
      <point x="740" y="243" type="curve" smooth="yes"/>
      <point x="740" y="423"/>
      <point x="603" y="500"/>
      <point x="468" y="500" type="curve" smooth="yes"/>
      <point x="339" y="500"/>
      <point x="229" y="445"/>
      <point x="199" y="335" type="curve"/>
      <point x="198" y="353"/>
      <point x="197" y="371"/>
      <point x="197" y="389" type="curve" smooth="yes"/>
      <point x="197" y="560"/>
      <point x="271" y="692"/>
      <point x="420" y="692" type="curve"/>
      <point x="582" y="692"/>
      <point x="597" y="529"/>
      <point x="597" y="529" type="curve"/>
      <point x="730" y="569" type="line"/>
      <point x="730" y="569"/>
      <point x="682" y="791"/>
      <point x="420" y="791" type="curve"/>
      <point x="193" y="791"/>
      <point x="60" y="622"/>
      <point x="60" y="389" type="curve" smooth="yes"/>
      <point x="60" y="155"/>
      <point x="189" y="-14"/>
      <point x="416" y="-14" type="curve" smooth="yes"/>
      <point x="603" y="-14"/>
      <point x="740" y="93"/>
    </contour>
    <contour>
      <point x="416" y="401" type="curve" smooth="yes"/>
      <point x="545" y="401"/>
      <point x="603" y="333"/>
      <point x="603" y="243" type="curve" smooth="yes"/>
      <point x="603" y="153"/>
      <point x="545" y="85"/>
      <point x="416" y="85" type="curve" smooth="yes"/>
      <point x="310" y="85"/>
      <point x="244" y="151"/>
      <point x="215" y="251" type="curve"/>
      <point x="235" y="337"/>
      <point x="310" y="401"/>
    </contour>
  </outline>
</glyph>
<glyph name="nine" format="1">
  <advance width="800"/>
  <unicode hex="0039"/>
  <outline>
    <contour>
      <point x="740" y="388" type="curve" smooth="yes"/>
      <point x="740" y="622"/>
      <point x="611" y="791"/>
      <point x="384" y="791" type="curve" smooth="yes"/>
      <point x="197" y="791"/>
      <point x="60" y="684"/>
      <point x="60" y="534" type="curve" smooth="yes"/>
      <point x="60" y="354"/>
      <point x="197" y="277"/>
      <point x="332" y="277" type="curve" smooth="yes"/>
      <point x="493" y="277"/>
      <point x="576" y="353"/>
      <point x="601" y="442" type="curve"/>
      <point x="602" y="425"/>
      <point x="603" y="407"/>
      <point x="603" y="388" type="curve" smooth="yes"/>
      <point x="603" y="217"/>
      <point x="529" y="85"/>
      <point x="380" y="85" type="curve"/>
      <point x="218" y="85"/>
      <point x="203" y="248"/>
      <point x="203" y="248" type="curve"/>
      <point x="70" y="208" type="line"/>
      <point x="70" y="208"/>
      <point x="118" y="-14"/>
      <point x="380" y="-14" type="curve"/>
      <point x="607" y="-14"/>
      <point x="740" y="155"/>
    </contour>
    <contour>
      <point x="197" y="534" type="curve" smooth="yes"/>
      <point x="197" y="624"/>
      <point x="255" y="692"/>
      <point x="384" y="692" type="curve" smooth="yes"/>
      <point x="489" y="692"/>
      <point x="555" y="626"/>
      <point x="585" y="526" type="curve"/>
      <point x="565" y="445"/>
      <point x="493" y="376"/>
      <point x="384" y="376" type="curve" smooth="yes"/>
      <point x="255" y="376"/>
      <point x="197" y="444"/>
    </contour>
  </outline>
</glyph>
<glyph name="colon" format="1">
  <advance width="310"/>
  <unicode hex="003A"/>
  <outline>
    <contour>
      <point x="90" y="410" type="line"/>
      <point x="220" y="410" type="line"/>
      <point x="220" y="555" type="line"/>
      <point x="90" y="555" type="line"/>
    </contour>
    <contour>
      <point x="90" y="0" type="line"/>
      <point x="220" y="0" type="line"/>
      <point x="220" y="145" type="line"/>
      <point x="90" y="145" type="line"/>
    </contour>
  </outline>
</glyph>
<glyph name="less" format="1">
  <advance width="650"/>
  <unicode hex="003C"/>
  <outline>
    <contour>
      <point x="75" y="287" type="line"/>
      <point x="75" y="235" type="line"/>
      <point x="528" y="-14" type="line"/>
      <point x="554" y="31" type="line"/>
      <point x="136" y="261" type="line"/>
      <point x="555" y="491" type="line"/>
      <point x="529" y="537" type="line"/>
    </contour>
    <contour>
      <point x="276" y="568" type="move" name="_top"/>
    </contour>
  </outline>
</glyph>
<glyph name="question" format="1">
  <advance width="760"/>
  <unicode hex="003F"/>
  <outline>
    <contour>
      <point x="700" y="566" type="curve"/>
      <point x="700" y="658"/>
      <point x="631" y="791"/>
      <point x="397" y="791" type="curve"/>
      <point x="75" y="791"/>
      <point x="60" y="499"/>
      <point x="60" y="499" type="curve"/>
      <point x="194" y="459" type="line"/>
      <point x="194" y="459"/>
      <point x="165" y="692"/>
      <point x="397" y="692" type="curve"/>
      <point x="510" y="692"/>
      <point x="563" y="623"/>
      <point x="563" y="555" type="curve"/>
      <point x="563" y="387"/>
      <point x="314" y="430"/>
      <point x="314" y="240" type="curve"/>
      <point x="424" y="240" type="line"/>
      <point x="424" y="385"/>
      <point x="700" y="384"/>
    </contour>
    <contour>
      <point x="304" y="0" type="line"/>
      <point x="434" y="0" type="line"/>
      <point x="434" y="145" type="line"/>
      <point x="304" y="145" type="line"/>
    </contour>
  </outline>
</glyph>
<glyph name="C" format="1">
  <advance width="984"/>
  <unicode hex="0043"/>
  <outline>
    <contour>
      <point x="903" y="469" type="line"/>
      <point x="903" y="469"/>
      <point x="871" y="791"/>
      <point x="493" y="791" type="curve"/>
      <point x="217" y="791"/>
      <point x="60" y="622"/>
      <point x="60" y="388" type="curve" smooth="yes"/>
      <point x="60" y="155"/>
      <point x="227" y="-14"/>
      <point x="503" y="-14" type="curve"/>
      <point x="893" y="-14"/>
      <point x="924" y="293"/>
      <point x="924" y="293" type="curve"/>
      <point x="790" y="332" type="line"/>
      <point x="790" y="332"/>
      <point x="784" y="85"/>
      <point x="503" y="85" type="curve"/>
      <point x="315" y="85"/>
      <point x="197" y="217"/>
      <point x="197" y="388" type="curve" smooth="yes"/>
      <point x="197" y="560"/>
      <point x="305" y="692"/>
      <point x="493" y="692" type="curve"/>
      <point x="759" y="692"/>
      <point x="769" y="429"/>
      <point x="769" y="429" type="curve"/>
    </contour>
    <contour>
      <point x="484" y="835" type="move" name="top"/>
    </contour>
    <contour>
      <point x="484" y="-29" type="move" name="bottom"/>
    </contour>
  </outline>
</glyph>
<glyph name="D" format="1">
  <advance width="923"/>
  <unicode hex="0044"/>
  <outline>
    <contour>
      <point x="440" y="777" type="curve" smooth="yes"/>
      <point x="90" y="777" type="line"/>
      <point x="90" y="0" type="line"/>
      <point x="440" y="0" type="line" smooth="yes"/>
      <point x="700" y="0"/>
      <point x="863" y="148"/>
      <point x="863" y="388" type="curve" smooth="yes"/>
      <point x="863" y="629"/>
      <point x="700" y="777"/>
    </contour>
    <contour>
      <point x="220" y="692" type="line"/>
      <point x="380" y="692" type="line" smooth="yes"/>
      <point x="600" y="692"/>
      <point x="726" y="588"/>
      <point x="726" y="388" type="curve" smooth="yes"/>
      <point x="726" y="188"/>
      <point x="600" y="85"/>
      <point x="380" y="85" type="curve" smooth="yes"/>
      <point x="220" y="85" type="line"/>
    </contour>
  </outline>
</glyph>
<glyph name="H" format="1">
  <advance width="930"/>
  <unicode hex="0048"/>
  <outline>
    <contour>
      <point x="710" y="0" type="line"/>
      <point x="840" y="0" type="line"/>
      <point x="840" y="777" type="line"/>
      <point x="710" y="777" type="line"/>
      <point x="710" y="432" type="line"/>
      <point x="220" y="432" type="line"/>
      <point x="220" y="777" type="line"/>
      <point x="90" y="777" type="line"/>
      <point x="90" y="0" type="line"/>
      <point x="220" y="0" type="line"/>
      <point x="220" y="347" type="line"/>
      <point x="710" y="347" type="line"/>
    </contour>
  </outline>
</glyph>
<glyph name="I" format="1">
  <advance width="310"/>
  <unicode hex="0049"/>
  <outline>
    <contour>
      <point x="90" y="777" type="line"/>
      <point x="90" y="0" type="line"/>
      <point x="220" y="0" type="line"/>
      <point x="220" y="777" type="line"/>
    </contour>
    <contour>
      <point x="165" y="835" type="move" name="top"/>
    </contour>
  </outline>
</glyph>
<glyph name="J" format="1">
  <advance width="774"/>
  <unicode hex="004A"/>
  <outline>
    <contour>
      <point x="194" y="332" type="curve"/>
      <point x="60" y="293" type="line"/>
      <point x="62" y="83"/>
      <point x="184" y="-14"/>
      <point x="372" y="-14" type="curve"/>
      <point x="562" y="-14"/>
      <point x="684" y="85"/>
      <point x="684" y="299" type="curve"/>
      <point x="684" y="777" type="line"/>
      <point x="554" y="777" type="line"/>
      <point x="554" y="299" type="line"/>
      <point x="554" y="177"/>
      <point x="497" y="85"/>
      <point x="372" y="85" type="curve"/>
      <point x="247" y="85"/>
      <point x="190" y="177"/>
      <point x="190" y="299" type="curve"/>
      <point x="190" y="317"/>
      <point x="194" y="332"/>
    </contour>
  </outline>
</glyph>
<glyph name="K" format="1">
  <advance width="862"/>
  <unicode hex="004B"/>
  <outline>
    <contour>
      <point x="692" y="0" type="line"/>
      <point x="842" y="0" type="line"/>
      <point x="432" y="467" type="line"/>
      <point x="782" y="777" type="line"/>
      <point x="622" y="777" type="line"/>
      <point x="220" y="409" type="line"/>
      <point x="220" y="777" type="line"/>
      <point x="90" y="777" type="line"/>
      <point x="90" y="0" type="line"/>
      <point x="220" y="0" type="line"/>
      <point x="220" y="280" type="line"/>
      <point x="347" y="393" type="line"/>
    </contour>
  </outline>
</glyph>
<glyph name="L" format="1">
  <advance width="665"/>
  <unicode hex="004C"/>
  <outline>
    <contour>
      <point x="90" y="0" type="line"/>
      <point x="665" y="0" type="line"/>
      <point x="665" y="85" type="line"/>
      <point x="220" y="85" type="line"/>
      <point x="220" y="777" type="line"/>
      <point x="90" y="777" type="line"/>
    </contour>
  </outline>
</glyph>
<glyph name="M" format="1">
  <advance width="1222"/>
  <unicode hex="004D"/>
  <outline>
    <contour>
      <point x="611" y="85" type="line"/>
      <point x="290" y="777" type="line"/>
      <point x="90" y="777" type="line"/>
      <point x="90" y="0" type="line"/>
      <point x="220" y="0" type="line"/>
      <point x="220" y="642" type="line"/>
      <point x="526" y="0" type="line"/>
      <point x="696" y="0" type="line"/>
      <point x="1002" y="642" type="line"/>
      <point x="1002" y="0" type="line"/>
      <point x="1132" y="0" type="line"/>
      <point x="1132" y="777" type="line"/>
      <point x="932" y="777" type="line"/>
    </contour>
  </outline>
</glyph>
<glyph name="N" format="1">
  <advance width="931"/>
  <unicode hex="004E"/>
  <outline>
    <contour>
      <point x="841" y="777" type="line"/>
      <point x="711" y="777" type="line"/>
      <point x="711" y="135" type="line"/>
      <point x="250" y="777" type="line"/>
      <point x="90" y="777" type="line"/>
      <point x="90" y="0" type="line"/>
      <point x="220" y="0" type="line"/>
      <point x="220" y="642" type="line"/>
      <point x="681" y="0" type="line"/>
      <point x="841" y="0" type="line"/>
    </contour>
  </outline>
</glyph>
<glyph name="P" format="1">
  <advance width="789"/>
  <unicode hex="0050"/>
  <outline>
    <contour>
      <point x="90" y="777" type="line"/>
      <point x="90" y="0" type="line"/>
      <point x="220" y="0" type="line"/>
      <point x="220" y="356" type="line"/>
      <point x="420" y="356" type="line" smooth="yes"/>
      <point x="660" y="356"/>
      <point x="769" y="424"/>
      <point x="769" y="567" type="curve" smooth="yes"/>
      <point x="769" y="710"/>
      <point x="660" y="777"/>
      <point x="420" y="777" type="curve" smooth="yes"/>
    </contour>
    <contour>
      <point x="220" y="441" type="line"/>
      <point x="220" y="692" type="line"/>
      <point x="420" y="692" type="line" smooth="yes"/>
      <point x="540" y="692"/>
      <point x="632" y="667"/>
      <point x="632" y="567" type="curve" smooth="yes"/>
      <point x="632" y="467"/>
      <point x="540" y="441"/>
      <point x="420" y="441" type="curve" smooth="yes"/>
    </contour>
  </outline>
</glyph>
<glyph name="R" format="1">
  <advance width="849"/>
  <unicode hex="0052"/>
  <outline>
    <contour>
      <point x="90" y="777" type="line"/>
      <point x="90" y="0" type="line"/>
      <point x="220" y="0" type="line"/>
      <point x="220" y="356" type="line"/>
      <point x="350" y="356" type="line" smooth="yes"/>
      <point x="515" y="356"/>
      <point x="567" y="324"/>
      <point x="588" y="236" type="curve" smooth="yes"/>
      <point x="630" y="59"/>
      <point x="639" y="20"/>
      <point x="654" y="0" type="curve"/>
      <point x="789" y="0" type="line"/>
      <point x="774" y="20"/>
      <point x="765" y="54"/>
      <point x="712" y="258" type="curve" smooth="yes"/>
      <point x="689" y="348"/>
      <point x="607" y="382"/>
      <point x="534" y="391" type="curve"/>
      <point x="669" y="391"/>
      <point x="769" y="448"/>
      <point x="769" y="567" type="curve" smooth="yes"/>
      <point x="769" y="710"/>
      <point x="660" y="777"/>
      <point x="420" y="777" type="curve" smooth="yes"/>
    </contour>
    <contour>
      <point x="220" y="441" type="line"/>
      <point x="220" y="692" type="line"/>
      <point x="420" y="692" type="line" smooth="yes"/>
      <point x="540" y="692"/>
      <point x="632" y="667"/>
      <point x="632" y="567" type="curve" smooth="yes"/>
      <point x="632" y="467"/>
      <point x="540" y="441"/>
      <point x="420" y="441" type="curve" smooth="yes"/>
    </contour>
  </outline>
</glyph>
<glyph name="T" format="1">
  <advance width="787"/>
  <unicode hex="0054"/>
  <outline>
    <contour>
      <point x="0" y="692" type="line"/>
      <point x="330" y="692" type="line"/>
      <point x="330" y="0" type="line"/>
      <point x="457" y="0" type="line"/>
      <point x="457" y="692" type="line"/>
      <point x="787" y="692" type="line"/>
      <point x="787" y="777" type="line"/>
      <point x="0" y="777" type="line"/>
    </contour>
  </outline>
</glyph>
<glyph name="U" format="1">
  <advance width="916"/>
  <unicode hex="0055"/>
  <outline>
    <contour>
      <point x="696" y="777" type="line"/>
      <point x="696" y="321" type="line" smooth="yes"/>
      <point x="696" y="119"/>
      <point x="605" y="85"/>
      <point x="458" y="85" type="curve" smooth="yes"/>
      <point x="311" y="85"/>
      <point x="220" y="119"/>
      <point x="220" y="321" type="curve" smooth="yes"/>
      <point x="220" y="777" type="line"/>
      <point x="90" y="777" type="line"/>
      <point x="90" y="321" type="line" smooth="yes"/>
      <point x="90" y="97"/>
      <point x="214" y="-14"/>
      <point x="458" y="-14" type="curve" smooth="yes"/>
      <point x="702" y="-14"/>
      <point x="826" y="97"/>
      <point x="826" y="321" type="curve" smooth="yes"/>
      <point x="826" y="777" type="line"/>
    </contour>
    <contour>
      <point x="477" y="835" type="move" name="top"/>
    </contour>
  </outline>
</glyph>
<glyph name="V" format="1">
  <advance width="914"/>
  <unicode hex="0056"/>
  <outline>
    <contour>
      <point x="894" y="777" type="line"/>
      <point x="755" y="777" type="line"/>
      <point x="457" y="85" type="line"/>
      <point x="159" y="777" type="line"/>
      <point x="20" y="777" type="line"/>
      <point x="365" y="0" type="line"/>
      <point x="549" y="0" type="line"/>
    </contour>
  </outline>
</glyph>
<glyph name="W" format="1">
  <advance width="1329"/>
  <unicode hex="0057"/>
  <outline>
    <contour>
      <point x="1309" y="777" type="line"/>
      <point x="1170" y="777" type="line"/>
      <point x="952" y="85" type="line"/>
      <point x="744" y="777" type="line"/>
      <point x="585" y="777" type="line"/>
      <point x="377" y="85" type="line"/>
      <point x="159" y="777" type="line"/>
      <point x="20" y="777" type="line"/>
      <point x="285" y="0" type="line"/>
      <point x="469" y="0" type="line"/>
      <point x="664" y="642" type="line"/>
      <point x="860" y="0" type="line"/>
      <point x="1044" y="0" type="line"/>
    </contour>
  </outline>
</glyph>
<glyph name="X" format="1">
  <advance width="852"/>
  <unicode hex="0058"/>
  <outline>
    <contour>
      <point x="10" y="0" type="line"/>
      <point x="160" y="0" type="line"/>
      <point x="426" y="303" type="line"/>
      <point x="692" y="0" type="line"/>
      <point x="842" y="0" type="line"/>
      <point x="501" y="389" type="line"/>
      <point x="842" y="777" type="line"/>
      <point x="692" y="777" type="line"/>
      <point x="426" y="474" type="line"/>
      <point x="160" y="777" type="line"/>
      <point x="10" y="777" type="line"/>
      <point x="351" y="389" type="line"/>
    </contour>
  </outline>
</glyph>
<glyph name="Z" format="1">
  <advance width="743"/>
  <unicode hex="005A"/>
  <outline>
    <contour>
      <point x="723" y="85" type="line"/>
      <point x="185" y="85" type="line"/>
      <point x="723" y="682" type="line"/>
      <point x="723" y="777" type="line"/>
      <point x="20" y="777" type="line"/>
      <point x="20" y="692" type="line"/>
      <point x="558" y="692" type="line"/>
      <point x="20" y="95" type="line"/>
      <point x="20" y="0" type="line"/>
      <point x="723" y="0" type="line"/>
    </contour>
  </outline>
</glyph>
<glyph name="bracketleft" format="1">
  <advance width="333"/>
  <unicode hex="005B"/>
  <outline>
    <contour>
      <point x="313" y="-129" type="line" name="hr00"/>
      <point x="110" y="-129" type="line"/>
      <point x="110" y="768" type="line"/>
      <point x="313" y="768" type="line"/>
      <point x="313" y="818" type="line"/>
      <point x="60" y="818" type="line"/>
      <point x="60" y="-179" type="line"/>
      <point x="313" y="-179" type="line"/>
    </contour>
  </outline>
</glyph>
<glyph name="backslash" format="1">
  <advance width="245"/>
  <unicode hex="005C"/>
  <outline>
    <contour>
      <point x="-39" y="713" type="line" name="hr00"/>
      <point x="235" y="-110" type="line"/>
      <point x="284" y="-95" type="line"/>
      <point x="12" y="729" type="line"/>
    </contour>
  </outline>
</glyph>
<glyph name="bracketright" format="1">
  <advance width="333"/>
  <unicode hex="005D"/>
  <outline>
    <contour>
      <point x="20" y="-179" type="line"/>
      <point x="273" y="-179" type="line"/>
      <point x="273" y="818" type="line"/>
      <point x="20" y="818" type="line"/>
      <point x="20" y="768" type="line" name="hr00"/>
      <point x="223" y="768" type="line"/>
      <point x="223" y="-129" type="line"/>
      <point x="20" y="-129" type="line"/>
    </contour>
  </outline>
</glyph>
<glyph name="grave" format="1">
  <advance width="727"/>
  <unicode hex="0060"/>
  <outline>
    <contour>
      <point x="400" y="821" type="line"/>
      <point x="599" y="633" type="line"/>
      <point x="666" y="633" type="line"/>
      <point x="550" y="821" type="line"/>
    </contour>
    <contour>
      <point x="601" y="613" type="move" name="_top"/>
    </contour>
  </outline>
</glyph>
<glyph name="a" format="1">
  <advance width="704"/>
  <unicode hex="0061"/>
  <outline>
    <contour>
      <point x="565" y="133" type="curve" smooth="yes"/>
      <point x="571" y="366" type="line" smooth="yes"/>
      <point x="574" y="480"/>
      <point x="493" y="569"/>
      <point x="327" y="569" type="curve" smooth="yes"/>
      <point x="104" y="569"/>
      <point x="50" y="404"/>
      <point x="50" y="404" type="curve"/>
      <point x="174" y="368" type="line"/>
      <point x="174" y="368"/>
      <point x="201" y="480"/>
      <point x="331" y="480" type="curve"/>
      <point x="460" y="480"/>
      <point x="450" y="364"/>
      <point x="450" y="364" type="curve"/>
      <point x="152" y="330"/>
      <point x="70" y="201"/>
      <point x="70" y="108" type="curve"/>
      <point x="70" y="39"/>
      <point x="122" y="-14"/>
      <point x="204" y="-14" type="curve"/>
      <point x="370" y="-14"/>
      <point x="450" y="210"/>
      <point x="450" y="210" type="curve"/>
      <point x="450" y="115" type="line" smooth="yes"/>
      <point x="450" y="17"/>
      <point x="512" y="-14"/>
      <point x="574" y="-14" type="curve" smooth="yes"/>
      <point x="667" y="-14"/>
      <point x="704" y="36"/>
      <point x="704" y="36" type="curve"/>
      <point x="680" y="125" type="line"/>
      <point x="680" y="125"/>
      <point x="658" y="75"/>
      <point x="609" y="75" type="curve"/>
      <point x="577" y="75"/>
      <point x="564" y="98"/>
    </contour>
    <contour>
      <point x="197" y="133" type="curve"/>
      <point x="197" y="182"/>
      <point x="227" y="273"/>
      <point x="450" y="330" type="curve"/>
      <point x="450" y="295" type="line"/>
      <point x="452" y="253"/>
      <point x="356" y="75"/>
      <point x="250" y="75" type="curve"/>
      <point x="217" y="75"/>
      <point x="197" y="95"/>
    </contour>
    <contour>
      <point x="336" y="613" type="move" name="top"/>
    </contour>
  </outline>
</glyph>
<glyph name="b" format="1">
  <advance width="747"/>
  <unicode hex="0062"/>
  <outline>
    <contour>
      <point x="210" y="777" type="line"/>
      <point x="210" y="777"/>
      <point x="154" y="766"/>
      <point x="90" y="766" type="curve"/>
      <point x="90" y="0" type="line"/>
      <point x="158" y="0" type="line"/>
      <point x="196" y="132" type="line"/>
      <point x="196" y="132"/>
      <point x="233" y="-14"/>
      <point x="409" y="-14" type="curve"/>
      <point x="575" y="-14"/>
      <point x="687" y="107"/>
      <point x="687" y="277" type="curve" smooth="yes"/>
      <point x="687" y="447"/>
      <point x="575" y="569"/>
      <point x="409" y="569" type="curve" smooth="yes"/>
      <point x="259" y="569"/>
      <point x="210" y="452"/>
      <point x="210" y="452" type="curve"/>
    </contour>
    <contour>
      <point x="371" y="75" type="curve"/>
      <point x="251" y="75"/>
      <point x="185" y="167"/>
      <point x="185" y="277" type="curve" smooth="yes"/>
      <point x="185" y="387"/>
      <point x="251" y="480"/>
      <point x="371" y="480" type="curve" smooth="yes"/>
      <point x="489" y="480"/>
      <point x="559" y="397"/>
      <point x="559" y="277" type="curve" smooth="yes"/>
      <point x="559" y="157"/>
      <point x="489" y="75"/>
    </contour>
  </outline>
</glyph>
<glyph name="d" format="1">
  <advance width="747"/>
  <unicode hex="0064"/>
  <outline>
    <contour>
      <point x="537" y="452" type="line"/>
      <point x="537" y="452"/>
      <point x="488" y="569"/>
      <point x="338" y="569" type="curve" smooth="yes"/>
      <point x="172" y="569"/>
      <point x="60" y="447"/>
      <point x="60" y="277" type="curve" smooth="yes"/>
      <point x="60" y="107"/>
      <point x="172" y="-14"/>
      <point x="338" y="-14" type="curve"/>
      <point x="514" y="-14"/>
      <point x="551" y="132"/>
      <point x="551" y="132" type="curve"/>
      <point x="589" y="0" type="line"/>
      <point x="657" y="0" type="line"/>
      <point x="657" y="777" type="line"/>
      <point x="657" y="777"/>
      <point x="600" y="766"/>
      <point x="537" y="766" type="curve"/>
    </contour>
    <contour>
      <point x="376" y="75" type="curve"/>
      <point x="258" y="75"/>
      <point x="188" y="157"/>
      <point x="188" y="277" type="curve" smooth="yes"/>
      <point x="188" y="397"/>
      <point x="258" y="480"/>
      <point x="376" y="480" type="curve" smooth="yes"/>
      <point x="496" y="480"/>
      <point x="562" y="387"/>
      <point x="562" y="277" type="curve" smooth="yes"/>
      <point x="562" y="167"/>
      <point x="496" y="75"/>
    </contour>
  </outline>
</glyph>
<glyph name="g" format="1">
  <advance width="727"/>
  <unicode hex="0067"/>
  <outline>
    <contour>
      <point x="367" y="182" type="curve" smooth="yes"/>
      <point x="564" y="182"/>
      <point x="650" y="275"/>
      <point x="650" y="375" type="curve" smooth="yes"/>
      <point x="650" y="417"/>
      <point x="635" y="457"/>
      <point x="603" y="490" type="curve"/>
      <point x="570" y="533"/>
      <point x="610" y="581"/>
      <point x="717" y="562" type="curve"/>
      <point x="693" y="651" type="line"/>
      <point x="552" y="669"/>
      <point x="516" y="608"/>
      <point x="564" y="522" type="curve"/>
      <point x="518" y="551"/>
      <point x="452" y="569"/>
      <point x="364" y="569" type="curve" smooth="yes"/>
      <point x="164" y="569"/>
      <point x="78" y="475"/>
      <point x="78" y="375" type="curve" smooth="yes"/>
      <point x="78" y="303"/>
      <point x="123" y="234"/>
      <point x="224" y="202" type="curve"/>
      <point x="177" y="198"/>
      <point x="70" y="181"/>
      <point x="70" y="106" type="curve"/>
      <point x="70" y="11"/>
      <point x="224" y="7"/>
      <point x="224" y="7" type="curve"/>
      <point x="128" y="7"/>
      <point x="50" y="-35"/>
      <point x="50" y="-107" type="curve" smooth="yes"/>
      <point x="50" y="-159"/>
      <point x="88" y="-233"/>
      <point x="273" y="-233" type="curve" smooth="yes"/>
      <point x="403" y="-233" type="line" smooth="yes"/>
      <point x="611" y="-233"/>
      <point x="697" y="-173"/>
      <point x="697" y="-74" type="curve" smooth="yes"/>
      <point x="697" y="1"/>
      <point x="647" y="75"/>
      <point x="474" y="75" type="curve" smooth="yes"/>
      <point x="284" y="75" type="line" smooth="yes"/>
      <point x="227" y="75"/>
      <point x="198" y="94"/>
      <point x="198" y="130" type="curve"/>
      <point x="198" y="172"/>
      <point x="240" y="186"/>
      <point x="271" y="190" type="curve"/>
      <point x="299" y="185"/>
      <point x="331" y="182"/>
    </contour>
    <contour>
      <point x="206" y="375" type="curve" smooth="yes"/>
      <point x="206" y="438"/>
      <point x="248" y="494"/>
      <point x="364" y="494" type="curve" smooth="yes"/>
      <point x="480" y="494"/>
      <point x="521" y="438"/>
      <point x="521" y="375" type="curve" smooth="yes"/>
      <point x="521" y="314"/>
      <point x="480" y="257"/>
      <point x="364" y="257" type="curve" smooth="yes"/>
      <point x="248" y="257"/>
      <point x="206" y="314"/>
    </contour>
    <contour>
      <point x="465" y="-13" type="line" smooth="yes"/>
      <point x="542" y="-19"/>
      <point x="568" y="-45"/>
      <point x="568" y="-87" type="curve" smooth="yes"/>
      <point x="568" y="-150"/>
      <point x="510" y="-172"/>
      <point x="378" y="-172" type="curve" smooth="yes"/>
      <point x="228" y="-172"/>
      <point x="179" y="-150"/>
      <point x="179" y="-87" type="curve" smooth="yes"/>
      <point x="179" y="0"/>
      <point x="295" y="0"/>
      <point x="295" y="0" type="curve"/>
    </contour>
  </outline>
</glyph>
<glyph name="j" format="1">
  <advance width="311"/>
  <unicode hex="006A"/>
  <outline>
    <contour>
      <point x="101" y="681" type="line"/>
      <point x="221" y="681" type="line"/>
      <point x="221" y="777" type="line"/>
      <point x="101" y="777" type="line"/>
    </contour>
    <contour>
      <point x="101" y="7" type="line"/>
      <point x="101" y="-92"/>
      <point x="68" y="-145"/>
      <point x="2" y="-145" type="curve"/>
      <point x="-45" y="-145"/>
      <point x="-66" y="-102"/>
      <point x="-66" y="-102" type="curve"/>
      <point x="-90" y="-191" type="line"/>
      <point x="-90" y="-191"/>
      <point x="-57" y="-237"/>
      <point x="24" y="-237" type="curve"/>
      <point x="155" y="-237"/>
      <point x="221" y="-138"/>
      <point x="221" y="15" type="curve"/>
      <point x="221" y="555" type="line"/>
      <point x="101" y="555" type="line"/>
    </contour>
  </outline>
</glyph>
<glyph name="k" format="1">
  <advance width="654"/>
  <unicode hex="006B"/>
  <outline>
    <contour>
      <point x="90" y="0" type="line"/>
      <point x="210" y="0" type="line"/>
      <point x="210" y="197" type="line"/>
      <point x="267" y="251" type="line"/>
      <point x="499" y="0" type="line"/>
      <point x="654" y="0" type="line"/>
      <point x="352" y="321" type="line"/>
      <point x="600" y="555" type="line"/>
      <point x="454" y="555" type="line"/>
      <point x="210" y="325" type="line"/>
      <point x="210" y="777" type="line"/>
      <point x="210" y="777"/>
      <point x="161" y="766"/>
      <point x="90" y="766" type="curve"/>
    </contour>
  </outline>
</glyph>
<glyph name="l" format="1">
  <advance width="300"/>
  <unicode hex="006C"/>
  <outline>
    <contour>
      <point x="90" y="0" type="line"/>
      <point x="210" y="0" type="line"/>
      <point x="210" y="777" type="line"/>
      <point x="210" y="777"/>
      <point x="154" y="766"/>
      <point x="90" y="766" type="curve"/>
    </contour>
  </outline>
</glyph>
<glyph name="m" format="1">
  <advance width="1136"/>
  <unicode hex="006D"/>
  <outline>
    <contour>
      <point x="926" y="0" type="line"/>
      <point x="1046" y="0" type="line"/>
      <point x="1046" y="344" type="line" smooth="yes"/>
      <point x="1046" y="484"/>
      <point x="998" y="569"/>
      <point x="843" y="569" type="curve" smooth="yes"/>
      <point x="688" y="569"/>
      <point x="638" y="464"/>
      <point x="623" y="415" type="curve"/>
      <point x="607" y="512"/>
      <point x="551" y="569"/>
      <point x="425" y="569" type="curve" smooth="yes"/>
      <point x="223" y="569"/>
      <point x="199" y="390"/>
      <point x="199" y="390" type="curve"/>
      <point x="148" y="555" type="line"/>
      <point x="90" y="555" type="line"/>
      <point x="90" y="0" type="line"/>
      <point x="210" y="0" type="line"/>
      <point x="210" y="330" type="line" smooth="yes"/>
      <point x="210" y="364"/>
      <point x="230" y="480"/>
      <point x="371" y="480" type="curve" smooth="yes"/>
      <point x="458" y="480"/>
      <point x="505" y="437"/>
      <point x="508" y="349" type="curve"/>
      <point x="508" y="0" type="line"/>
      <point x="628" y="0" type="line"/>
      <point x="628" y="330" type="line" smooth="yes"/>
      <point x="628" y="364"/>
      <point x="648" y="480"/>
      <point x="789" y="480" type="curve" smooth="yes"/>
      <point x="879" y="480"/>
      <point x="926" y="435"/>
      <point x="926" y="342" type="curve" smooth="yes"/>
    </contour>
  </outline>
</glyph>
<glyph name="p" format="1">
  <advance width="747"/>
  <unicode hex="0070"/>
  <outline>
    <contour>
      <point x="90" y="555" type="line"/>
      <point x="90" y="-223" type="line"/>
      <point x="210" y="-223" type="line"/>
      <point x="210" y="104" type="line"/>
      <point x="210" y="104"/>
      <point x="256" y="-14"/>
      <point x="409" y="-14" type="curve" smooth="yes"/>
      <point x="575" y="-14"/>
      <point x="687" y="108"/>
      <point x="687" y="278" type="curve" smooth="yes"/>
      <point x="687" y="448"/>
      <point x="575" y="569"/>
      <point x="409" y="569" type="curve" smooth="yes"/>
      <point x="233" y="569"/>
      <point x="196" y="423"/>
      <point x="196" y="423" type="curve"/>
      <point x="158" y="555" type="line"/>
    </contour>
    <contour>
      <point x="371" y="480" type="curve" smooth="yes"/>
      <point x="489" y="480"/>
      <point x="559" y="398"/>
      <point x="559" y="278" type="curve" smooth="yes"/>
      <point x="559" y="158"/>
      <point x="489" y="75"/>
      <point x="371" y="75" type="curve" smooth="yes"/>
      <point x="251" y="75"/>
      <point x="185" y="168"/>
      <point x="185" y="278" type="curve" smooth="yes"/>
      <point x="185" y="388"/>
      <point x="251" y="480"/>
    </contour>
  </outline>
</glyph>
<glyph name="r" format="1">
  <advance width="512"/>
  <unicode hex="0072"/>
  <outline>
    <contour>
      <point x="210" y="329" type="line" smooth="yes"/>
      <point x="210" y="361"/>
      <point x="243" y="480"/>
      <point x="320" y="480" type="curve"/>
      <point x="353" y="480"/>
      <point x="369" y="455"/>
      <point x="369" y="407" type="curve" smooth="yes"/>
      <point x="369" y="343"/>
      <point x="348" y="279"/>
      <point x="348" y="279" type="curve"/>
      <point x="472" y="315" type="line"/>
      <point x="472" y="315"/>
      <point x="492" y="362"/>
      <point x="492" y="433" type="curve" smooth="yes"/>
      <point x="492" y="506"/>
      <point x="463" y="569"/>
      <point x="371" y="569" type="curve"/>
      <point x="218" y="569"/>
      <point x="199" y="390"/>
      <point x="199" y="390" type="curve"/>
      <point x="148" y="555" type="line"/>
      <point x="90" y="555" type="line"/>
      <point x="90" y="0" type="line"/>
      <point x="210" y="0" type="line"/>
    </contour>
  </outline>
</glyph>
<glyph name="v" format="1">
  <advance width="668"/>
  <unicode hex="0076"/>
  <outline>
    <contour>
      <point x="658" y="555" type="line"/>
      <point x="522" y="555" type="line"/>
      <point x="334" y="107" type="line"/>
      <point x="148" y="555" type="line"/>
      <point x="10" y="555" type="line"/>
      <point x="268" y="0" type="line"/>
      <point x="399" y="0" type="line"/>
    </contour>
  </outline>
</glyph>
<glyph name="w" format="1">
  <advance width="1011"/>
  <unicode hex="0077"/>
  <outline>
    <contour>
      <point x="225" y="0" type="line"/>
      <point x="356" y="0" type="line"/>
      <point x="506" y="465" type="line"/>
      <point x="655" y="0" type="line"/>
      <point x="787" y="0" type="line"/>
      <point x="1001" y="555" type="line"/>
      <point x="863" y="555" type="line"/>
      <point x="715" y="107" type="line"/>
      <point x="578" y="555" type="line"/>
      <point x="433" y="555" type="line"/>
      <point x="297" y="107" type="line"/>
      <point x="148" y="555" type="line"/>
      <point x="10" y="555" type="line"/>
    </contour>
  </outline>
</glyph>
<glyph name="x" format="1">
  <advance width="662"/>
  <unicode hex="0078"/>
  <outline>
    <contour>
      <point x="10" y="0" type="line"/>
      <point x="164" y="0" type="line"/>
      <point x="331" y="204" type="line"/>
      <point x="499" y="0" type="line"/>
      <point x="652" y="0" type="line"/>
      <point x="399" y="276" type="line"/>
      <point x="652" y="555" type="line"/>
      <point x="503" y="555" type="line"/>
      <point x="331" y="350" type="line"/>
      <point x="159" y="555" type="line"/>
      <point x="10" y="555" type="line"/>
      <point x="262" y="276" type="line"/>
    </contour>
  </outline>
</glyph>
<glyph name="brokenbar" format="1">
  <advance width="170"/>
  <unicode hex="00A6"/>
  <outline>
    <contour>
      <point x="60" y="729" type="line"/>
      <point x="60" y="394" type="line"/>
      <point x="110" y="394" type="line"/>
      <point x="110" y="729" type="line"/>
    </contour>
    <contour>
      <point x="60" y="225" type="line" name="hr00"/>
      <point x="60" y="-110" type="line"/>
      <point x="110" y="-110" type="line"/>
      <point x="110" y="225" type="line"/>
    </contour>
  </outline>
</glyph>
<glyph name="section" format="1">
  <advance width="647"/>
  <unicode hex="00A7"/>
  <outline>
    <contour>
      <point x="407" y="130" type="curve"/>
      <point x="484" y="152"/>
      <point x="576" y="199"/>
      <point x="576" y="269" type="curve" smooth="yes"/>
      <point x="576" y="318"/>
      <point x="560" y="366"/>
      <point x="412" y="438" type="curve" smooth="yes"/>
      <point x="266" y="509" type="line" smooth="yes"/>
      <point x="189" y="547"/>
      <point x="168" y="585"/>
      <point x="168" y="622" type="curve" smooth="yes"/>
      <point x="168" y="665"/>
      <point x="211" y="702"/>
      <point x="286" y="702" type="curve" smooth="yes"/>
      <point x="501" y="702"/>
      <point x="483" y="556"/>
      <point x="483" y="556" type="curve"/>
      <point x="607" y="592" type="line"/>
      <point x="607" y="592"/>
      <point x="578" y="791"/>
      <point x="287" y="791" type="curve" smooth="yes"/>
      <point x="150" y="791"/>
      <point x="40" y="724"/>
      <point x="40" y="617" type="curve" smooth="yes"/>
      <point x="40" y="544"/>
      <point x="119" y="473"/>
      <point x="238" y="423" type="curve"/>
      <point x="162" y="402"/>
      <point x="71" y="355"/>
      <point x="71" y="280" type="curve"/>
      <point x="71" y="213"/>
      <point x="136" y="163"/>
      <point x="241" y="113" type="curve" smooth="yes"/>
      <point x="383" y="45" type="line" smooth="yes"/>
      <point x="460" y="8"/>
      <point x="479" y="-30"/>
      <point x="479" y="-67" type="curve" smooth="yes"/>
      <point x="479" y="-113"/>
      <point x="436" y="-148"/>
      <point x="361" y="-148" type="curve" smooth="yes"/>
      <point x="146" y="-148"/>
      <point x="164" y="-2"/>
      <point x="164" y="-2" type="curve"/>
      <point x="40" y="-38" type="line"/>
      <point x="40" y="-38"/>
      <point x="69" y="-237"/>
      <point x="360" y="-237" type="curve" smooth="yes"/>
      <point x="497" y="-237"/>
      <point x="607" y="-170"/>
      <point x="607" y="-63" type="curve" smooth="yes"/>
      <point x="607" y="10"/>
      <point x="538" y="91"/>
    </contour>
    <contour>
      <point x="304" y="347" type="curve"/>
      <point x="391" y="347"/>
      <point x="448" y="306"/>
      <point x="451" y="261" type="curve"/>
      <point x="451" y="228"/>
      <point x="403" y="207"/>
      <point x="343" y="207" type="curve" smooth="yes"/>
      <point x="236" y="207"/>
      <point x="198" y="262"/>
      <point x="198" y="294" type="curve" smooth="yes"/>
      <point x="198" y="328"/>
      <point x="243" y="347"/>
    </contour>
  </outline>
</glyph>
<glyph name="copyright" format="1">
  <advance width="1064"/>
  <unicode hex="00A9"/>
  <outline>
    <contour>
      <point x="60" y="311" type="curve" smooth="yes"/>
      <point x="60" y="46"/>
      <point x="267" y="-161"/>
      <point x="532" y="-161" type="curve" smooth="yes"/>
      <point x="797" y="-161"/>
      <point x="1004" y="46"/>
      <point x="1004" y="311" type="curve" smooth="yes"/>
      <point x="1004" y="576"/>
      <point x="797" y="783"/>
      <point x="532" y="783" type="curve" smooth="yes"/>
      <point x="267" y="783"/>
      <point x="60" y="576"/>
    </contour>
    <contour>
      <point x="116" y="310" type="curve" smooth="yes"/>
      <point x="116" y="541"/>
      <point x="301" y="726"/>
      <point x="532" y="726" type="curve" smooth="yes"/>
      <point x="763" y="726"/>
      <point x="948" y="541"/>
      <point x="948" y="310" type="curve" smooth="yes"/>
      <point x="948" y="79"/>
      <point x="763" y="-106"/>
      <point x="532" y="-106" type="curve" smooth="yes"/>
      <point x="301" y="-106"/>
      <point x="116" y="79"/>
    </contour>
    <contour>
      <point x="835" y="377" type="line"/>
      <point x="835" y="377"/>
      <point x="821" y="607"/>
      <point x="526" y="607" type="curve" smooth="yes"/>
      <point x="325" y="607"/>
      <point x="212" y="481"/>
      <point x="212" y="311" type="curve" smooth="yes"/>
      <point x="212" y="141"/>
      <point x="333" y="14"/>
      <point x="532" y="14" type="curve" smooth="yes"/>
      <point x="815" y="14"/>
      <point x="840" y="256"/>
      <point x="840" y="256" type="curve"/>
      <point x="718" y="290" type="line"/>
      <point x="718" y="290"/>
      <point x="714" y="113"/>
      <point x="532" y="113" type="curve" smooth="yes"/>
      <point x="411" y="113"/>
      <point x="335" y="200"/>
      <point x="335" y="311" type="curve" smooth="yes"/>
      <point x="335" y="422"/>
      <point x="405" y="508"/>
      <point x="526" y="508" type="curve" smooth="yes"/>
      <point x="717" y="508"/>
      <point x="713" y="341"/>
      <point x="713" y="341" type="curve"/>
    </contour>
  </outline>
</glyph>
<glyph name="degree" format="1">
  <advance width="348"/>
  <unicode hex="00B0"/>
  <outline>
    <contour>
      <point x="40" y="597" type="curve" smooth="yes" name="hr00"/>
      <point x="40" y="525"/>
      <point x="101" y="467"/>
      <point x="173" y="467" type="curve" smooth="yes"/>
      <point x="246" y="467"/>
      <point x="308" y="525"/>
      <point x="308" y="597" type="curve" smooth="yes"/>
      <point x="308" y="670"/>
      <point x="246" y="729"/>
      <point x="173" y="729" type="curve" smooth="yes"/>
      <point x="101" y="729"/>
      <point x="40" y="670"/>
    </contour>
    <contour>
      <point x="96" y="597" type="curve" smooth="yes"/>
      <point x="96" y="645"/>
      <point x="129" y="678"/>
      <point x="173" y="678" type="curve" smooth="yes"/>
      <point x="218" y="678"/>
      <point x="252" y="645"/>
      <point x="252" y="597" type="curve" smooth="yes"/>
      <point x="252" y="550"/>
      <point x="218" y="518"/>
      <point x="173" y="518" type="curve" smooth="yes"/>
      <point x="129" y="518"/>
      <point x="96" y="550"/>
    </contour>
  </outline>
</glyph>
<glyph name="plusminus" format="1">
  <advance width="650"/>
  <unicode hex="00B1"/>
  <outline>
    <contour>
      <point x="630" y="416" type="line"/>
      <point x="350" y="416" type="line"/>
      <point x="350" y="696" type="line"/>
      <point x="300" y="696" type="line"/>
      <point x="300" y="416" type="line"/>
      <point x="20" y="416" type="line"/>
      <point x="20" y="366" type="line"/>
      <point x="300" y="366" type="line"/>
      <point x="300" y="86" type="line"/>
      <point x="350" y="86" type="line"/>
      <point x="350" y="366" type="line"/>
      <point x="630" y="366" type="line"/>
    </contour>
    <contour>
      <point x="630" y="50" type="line"/>
      <point x="20" y="50" type="line"/>
      <point x="20" y="0" type="line"/>
      <point x="630" y="0" type="line"/>
    </contour>
    <contour>
      <point x="322" y="568" type="move" name="_top"/>
    </contour>
  </outline>
</glyph>
<glyph name="acute" format="1">
  <advance width="727"/>
  <unicode hex="00B4"/>
  <outline>
    <contour>
      <point x="650" y="821" type="line"/>
      <point x="534" y="633" type="line"/>
      <point x="601" y="633" type="line"/>
      <point x="800" y="821" type="line"/>
    </contour>
    <contour>
      <point x="601" y="613" type="move" name="_top"/>
    </contour>
  </outline>
</glyph>
<glyph name="paragraph" format="1">
  <advance width="714"/>
  <unicode hex="00B6"/>
  <outline>
    <contour>
      <point x="299" y="-223" type="line"/>
      <point x="419" y="-223" type="line"/>
      <point x="419" y="692" type="line"/>
      <point x="506" y="692" type="line"/>
      <point x="506" y="-223" type="line"/>
      <point x="624" y="-223" type="line"/>
      <point x="624" y="777" type="line"/>
      <point x="299" y="777" type="line" smooth="yes"/>
      <point x="145" y="777"/>
      <point x="20" y="718"/>
      <point x="20" y="555" type="curve" smooth="yes"/>
      <point x="20" y="409"/>
      <point x="141" y="338"/>
      <point x="299" y="338" type="curve"/>
    </contour>
  </outline>
</glyph>
<glyph name="periodcentered" format="1">
  <advance width="545"/>
  <unicode hex="00B7"/>
  <outline>
    <contour>
      <point x="72" y="280" type="curve" smooth="yes"/>
      <point x="72" y="171"/>
      <point x="162" y="81"/>
      <point x="272" y="81" type="curve" smooth="yes"/>
      <point x="383" y="81"/>
      <point x="473" y="171"/>
      <point x="473" y="280" type="curve" smooth="yes"/>
      <point x="473" y="392"/>
      <point x="383" y="481"/>
      <point x="272" y="481" type="curve" smooth="yes"/>
      <point x="162" y="481"/>
      <point x="72" y="392"/>
    </contour>
  </outline>
</glyph>
<glyph name="questiondown" format="1">
  <advance width="760"/>
  <unicode hex="00BF"/>
  <outline>
    <contour>
      <point x="304" y="75" type="line"/>
      <point x="434" y="75" type="line"/>
      <point x="434" y="220" type="line"/>
      <point x="304" y="220" type="line"/>
    </contour>
    <contour>
      <point x="700" y="-346" type="curve"/>
      <point x="700" y="-164"/>
      <point x="424" y="-165"/>
      <point x="424" y="-20" type="curve"/>
      <point x="314" y="-20" type="line"/>
      <point x="314" y="-210"/>
      <point x="563" y="-167"/>
      <point x="563" y="-335" type="curve"/>
      <point x="563" y="-403"/>
      <point x="510" y="-472"/>
      <point x="397" y="-472" type="curve"/>
      <point x="165" y="-472"/>
      <point x="194" y="-239"/>
      <point x="194" y="-239" type="curve"/>
      <point x="60" y="-279" type="line"/>
      <point x="60" y="-279"/>
      <point x="75" y="-571"/>
      <point x="397" y="-571" type="curve"/>
      <point x="631" y="-571"/>
      <point x="700" y="-438"/>
    </contour>
  </outline>
</glyph>
<glyph name="AE" format="1">
  <advance width="1169"/>
  <unicode hex="00C6"/>
  <outline>
    <contour>
      <point x="584" y="0" type="line"/>
      <point x="1129" y="0" type="line"/>
      <point x="1129" y="85" type="line"/>
      <point x="714" y="85" type="line"/>
      <point x="714" y="347" type="line"/>
      <point x="1072" y="347" type="line"/>
      <point x="1072" y="432" type="line"/>
      <point x="714" y="432" type="line"/>
      <point x="714" y="692" type="line"/>
      <point x="1100" y="692" type="line"/>
      <point x="1100" y="777" type="line"/>
      <point x="370" y="777" type="line"/>
      <point x="10" y="0" type="line"/>
      <point x="148" y="0" type="line"/>
      <point x="304" y="347" type="line"/>
      <point x="584" y="347" type="line"/>
    </contour>
    <contour>
      <point x="460" y="692" type="line"/>
      <point x="584" y="692" type="line"/>
      <point x="584" y="432" type="line"/>
      <point x="343" y="432" type="line"/>
    </contour>
  </outline>
</glyph>
<glyph name="multiply" format="1">
  <advance width="650"/>
  <unicode hex="00D7"/>
  <outline>
    <contour>
      <point x="60" y="502" type="line"/>
      <point x="289" y="273" type="line"/>
      <point x="60" y="44" type="line"/>
      <point x="96" y="8" type="line"/>
      <point x="325" y="237" type="line"/>
      <point x="554" y="8" type="line"/>
      <point x="590" y="44" type="line"/>
      <point x="361" y="273" type="line"/>
      <point x="590" y="502" type="line"/>
      <point x="554" y="538" type="line"/>
      <point x="325" y="309" type="line"/>
      <point x="96" y="538" type="line"/>
    </contour>
    <contour>
      <point x="321" y="568" type="move" name="_top"/>
    </contour>
  </outline>
</glyph>
<glyph name="germandbls" format="1">
  <advance width="689"/>
  <unicode hex="00DF"/>
  <outline>
    <contour>
      <point x="639" y="170" type="curve" smooth="yes"/>
      <point x="639" y="373"/>
      <point x="411" y="406"/>
      <point x="411" y="406" type="curve"/>
      <point x="411" y="406"/>
      <point x="619" y="406"/>
      <point x="619" y="577" type="curve"/>
      <point x="619" y="677"/>
      <point x="552" y="791"/>
      <point x="346" y="791" type="curve"/>
      <point x="137" y="791"/>
      <point x="90" y="677"/>
      <point x="90" y="575" type="curve" smooth="yes"/>
      <point x="90" y="0" type="line"/>
      <point x="210" y="0" type="line"/>
      <point x="210" y="555" type="line"/>
      <point x="210" y="636"/>
      <point x="247" y="702"/>
      <point x="350" y="702" type="curve" smooth="yes"/>
      <point x="448" y="702"/>
      <point x="492" y="637"/>
      <point x="492" y="559" type="curve"/>
      <point x="492" y="479"/>
      <point x="404" y="420"/>
      <point x="286" y="420" type="curve"/>
      <point x="286" y="345" type="line"/>
      <point x="401" y="345"/>
      <point x="512" y="305"/>
      <point x="512" y="176" type="curve"/>
      <point x="512" y="114"/>
      <point x="474" y="75"/>
      <point x="415" y="75" type="curve" smooth="yes"/>
      <point x="338" y="75"/>
      <point x="318" y="155"/>
      <point x="318" y="155" type="curve"/>
      <point x="294" y="66" type="line"/>
      <point x="294" y="66"/>
      <point x="332" y="-14"/>
      <point x="445" y="-14" type="curve" smooth="yes"/>
      <point x="554" y="-14"/>
      <point x="639" y="55"/>
    </contour>
  </outline>
</glyph>
<glyph name="divide" format="1">
  <advance width="650"/>
  <unicode hex="00F7"/>
  <outline>
    <contour>
      <point x="280" y="523" type="line"/>
      <point x="280" y="411" type="line"/>
      <point x="370" y="411" type="line"/>
      <point x="370" y="523" type="line"/>
    </contour>
    <contour>
      <point x="630" y="286" type="line"/>
      <point x="20" y="286" type="line"/>
      <point x="20" y="236" type="line"/>
      <point x="630" y="236" type="line"/>
    </contour>
    <contour>
      <point x="280" y="112" type="line"/>
      <point x="280" y="0" type="line"/>
      <point x="370" y="0" type="line"/>
      <point x="370" y="112" type="line"/>
    </contour>
  </outline>
</glyph>
<glyph name="aogonek" format="1">
  <advance width="731"/>
  <unicode hex="0105"/>
  <outline>
    <contour>
      <point x="711" y="-115" type="line"/>
      <point x="668" y="-186"/>
      <point x="573" y="-188"/>
      <point x="573" y="-119" type="curve" smooth="yes"/>
      <point x="573" y="-82"/>
      <point x="583" y="-58"/>
      <point x="670" y="9" type="curve"/>
      <point x="686" y="17"/>
      <point x="695" y="27"/>
      <point x="700" y="32" type="curve"/>
      <point x="701" y="32"/>
      <point x="701" y="33"/>
      <point x="702" y="33" type="curve"/>
      <point x="702" y="33" type="line"/>
      <point x="704" y="36" type="line"/>
      <point x="680" y="125" type="line"/>
      <point x="680" y="125"/>
      <point x="658" y="75"/>
      <point x="609" y="75" type="curve" smooth="yes"/>
      <point x="577" y="75"/>
      <point x="564" y="98"/>
      <point x="565" y="133" type="curve" smooth="yes"/>
      <point x="571" y="366" type="line" smooth="yes"/>
      <point x="574" y="480"/>
      <point x="493" y="569"/>
      <point x="327" y="569" type="curve" smooth="yes"/>
      <point x="104" y="569"/>
      <point x="50" y="404"/>
      <point x="50" y="404" type="curve"/>
      <point x="174" y="368" type="line"/>
      <point x="174" y="368"/>
      <point x="201" y="480"/>
      <point x="331" y="480" type="curve" smooth="yes"/>
      <point x="460" y="480"/>
      <point x="450" y="364"/>
      <point x="450" y="364" type="curve"/>
      <point x="152" y="330"/>
      <point x="70" y="201"/>
      <point x="70" y="108" type="curve" smooth="yes"/>
      <point x="70" y="39"/>
      <point x="122" y="-14"/>
      <point x="204" y="-14" type="curve" smooth="yes"/>
      <point x="366" y="-14"/>
      <point x="446" y="199"/>
      <point x="450" y="209" type="curve"/>
      <point x="450" y="115" type="line" smooth="yes"/>
      <point x="450" y="17"/>
      <point x="512" y="-14"/>
      <point x="573" y="-14" type="curve"/>
      <point x="523" y="-52"/>
      <point x="489" y="-98"/>
      <point x="489" y="-167" type="curve" smooth="yes"/>
      <point x="489" y="-294"/>
      <point x="634" y="-327"/>
      <point x="731" y="-252" type="curve"/>
    </contour>
    <contour>
      <point x="217" y="75"/>
      <point x="197" y="95"/>
      <point x="197" y="133" type="curve" smooth="yes"/>
      <point x="197" y="182"/>
      <point x="227" y="273"/>
      <point x="450" y="330" type="curve"/>
      <point x="450" y="295" type="line"/>
      <point x="452" y="253"/>
      <point x="356" y="75"/>
      <point x="250" y="75" type="curve" smooth="yes"/>
    </contour>
  </outline>
</glyph>
<glyph name="Eogonek" format="1">
  <advance width="782"/>
  <unicode hex="0118"/>
  <outline>
    <contour>
      <point x="702" y="-115" type="line"/>
      <point x="659" y="-186"/>
      <point x="564" y="-188"/>
      <point x="564" y="-119" type="curve" smooth="yes"/>
      <point x="564" y="-79"/>
      <point x="583" y="-50"/>
      <point x="705" y="0" type="curve"/>
      <point x="705" y="85" type="line"/>
      <point x="220" y="85" type="line"/>
      <point x="220" y="347" type="line"/>
      <point x="648" y="347" type="line"/>
      <point x="648" y="432" type="line"/>
      <point x="220" y="432" type="line"/>
      <point x="220" y="692" type="line"/>
      <point x="676" y="692" type="line"/>
      <point x="676" y="777" type="line"/>
      <point x="90" y="777" type="line"/>
      <point x="90" y="0" type="line"/>
      <point x="614" y="0" type="line"/>
      <point x="535" y="-25"/>
      <point x="480" y="-82"/>
      <point x="480" y="-167" type="curve" smooth="yes"/>
      <point x="480" y="-294"/>
      <point x="625" y="-327"/>
      <point x="722" y="-252" type="curve"/>
    </contour>
  </outline>
</glyph>
<glyph name="eogonek" format="1">
  <advance width="727"/>
  <unicode hex="0119"/>
  <outline>
    <contour>
      <point x="503" y="-94"/>
      <point x="516" y="-63"/>
      <point x="632" y="106" type="curve" smooth="yes"/>
      <point x="661" y="148"/>
      <point x="667" y="185"/>
      <point x="667" y="185" type="curve"/>
      <point x="543" y="221" type="line"/>
      <point x="543" y="221"/>
      <point x="543" y="75"/>
      <point x="383" y="75" type="curve" smooth="yes"/>
      <point x="271" y="75"/>
      <point x="190" y="146"/>
      <point x="188" y="273" type="curve"/>
      <point x="652" y="263" type="line"/>
      <point x="652" y="263"/>
      <point x="680" y="569"/>
      <point x="368" y="569" type="curve" smooth="yes"/>
      <point x="172" y="569"/>
      <point x="60" y="444"/>
      <point x="60" y="278" type="curve" smooth="yes"/>
      <point x="60" y="90"/>
      <point x="206" y="-14"/>
      <point x="368" y="-14" type="curve" smooth="yes"/>
      <point x="428" y="-14"/>
      <point x="476" y="-4"/>
      <point x="515" y="12" type="curve"/>
      <point x="459" y="-52"/>
      <point x="419" y="-97"/>
      <point x="419" y="-165" type="curve" smooth="yes"/>
      <point x="419" y="-295"/>
      <point x="564" y="-327"/>
      <point x="661" y="-252" type="curve"/>
      <point x="641" y="-115" type="line"/>
      <point x="598" y="-186"/>
      <point x="503" y="-188"/>
      <point x="503" y="-119" type="curve" smooth="yes"/>
    </contour>
    <contour>
      <point x="518" y="480"/>
      <point x="525" y="339"/>
      <point x="525" y="339" type="curve" smooth="yes"/>
      <point x="193" y="334" type="line"/>
      <point x="210" y="421"/>
      <point x="267" y="480"/>
      <point x="361" y="480" type="curve" smooth="yes"/>
    </contour>
  </outline>
</glyph>
<glyph name="dotlessi" format="1">
  <advance width="300"/>
  <unicode hex="0131"/>
  <outline>
    <contour>
      <point x="90" y="0" type="line"/>
      <point x="210" y="0" type="line"/>
      <point x="210" y="555" type="line"/>
      <point x="90" y="555" type="line"/>
    </contour>
  </outline>
</glyph>
<glyph name="Lslash" format="1">
  <advance width="727"/>
  <unicode hex="0141"/>
  <outline>
    <contour>
      <point x="282" y="85" type="line"/>
      <point x="282" y="338" type="line"/>
      <point x="614" y="590" type="line"/>
      <point x="555" y="663" type="line"/>
      <point x="282" y="439" type="line"/>
      <point x="282" y="777" type="line"/>
      <point x="152" y="777" type="line"/>
      <point x="152" y="332" type="line"/>
      <point x="40" y="240" type="line"/>
      <point x="80" y="185" type="line"/>
      <point x="152" y="240" type="line"/>
      <point x="152" y="0" type="line"/>
      <point x="727" y="0" type="line"/>
      <point x="727" y="85" type="line"/>
    </contour>
  </outline>
</glyph>
<glyph name="lslash" format="1">
  <advance width="462"/>
  <unicode hex="0142"/>
  <outline>
    <contour>
      <point x="432" y="485" type="line"/>
      <point x="383" y="558" type="line"/>
      <point x="270" y="467" type="line"/>
      <point x="270" y="777" type="line"/>
      <point x="270" y="777"/>
      <point x="214" y="766"/>
      <point x="150" y="766" type="curve"/>
      <point x="150" y="370" type="line"/>
      <point x="40" y="281" type="line"/>
      <point x="79" y="228" type="line"/>
      <point x="150" y="280" type="line"/>
      <point x="150" y="0" type="line"/>
      <point x="270" y="0" type="line"/>
      <point x="270" y="367" type="line"/>
    </contour>
  </outline>
</glyph>
<glyph name="Sacute" format="1">
  <advance width="814"/>
  <unicode hex="015A"/>
  <outline>
    <contour>
      <point x="638" y="1069" type="line"/>
      <point x="488" y="1069" type="line"/>
      <point x="372" y="881" type="line"/>
      <point x="439" y="881" type="line"/>
    </contour>
    <contour>
      <point x="348" y="476" type="line" smooth="yes"/>
      <point x="262" y="495"/>
      <point x="211" y="521"/>
      <point x="211" y="580" type="curve" smooth="yes"/>
      <point x="211" y="646"/>
      <point x="278" y="692"/>
      <point x="383" y="692" type="curve" smooth="yes"/>
      <point x="617" y="692"/>
      <point x="603" y="523"/>
      <point x="603" y="523" type="curve"/>
      <point x="737" y="559" type="line"/>
      <point x="737" y="559"/>
      <point x="729" y="791"/>
      <point x="389" y="791" type="curve" smooth="yes"/>
      <point x="171" y="791"/>
      <point x="76" y="685"/>
      <point x="76" y="568" type="curve" smooth="yes"/>
      <point x="76" y="475"/>
      <point x="141" y="401"/>
      <point x="274" y="370" type="curve" smooth="yes"/>
      <point x="463" y="326" type="line" smooth="yes"/>
      <point x="577" y="299"/>
      <point x="639" y="277"/>
      <point x="639" y="202" type="curve" smooth="yes"/>
      <point x="639" y="138"/>
      <point x="564" y="85"/>
      <point x="438" y="85" type="curve" smooth="yes"/>
      <point x="150" y="85"/>
      <point x="174" y="302"/>
      <point x="174" y="302" type="curve"/>
      <point x="40" y="263" type="line"/>
      <point x="45" y="158"/>
      <point x="138" y="-14"/>
      <point x="441" y="-14" type="curve" smooth="yes"/>
      <point x="629" y="-14"/>
      <point x="774" y="62"/>
      <point x="774" y="208" type="curve" smooth="yes"/>
      <point x="774" y="309"/>
      <point x="715" y="394"/>
      <point x="546" y="432" type="curve" smooth="yes"/>
    </contour>
  </outline>
</glyph>
<glyph name="zacute" format="1">
  <advance width="610"/>
  <unicode hex="017A"/>
  <outline>
    <contour>
      <point x="533" y="821" type="line"/>
      <point x="383" y="821" type="line"/>
      <point x="267" y="633" type="line"/>
      <point x="334" y="633" type="line"/>
    </contour>
    <contour>
      <point x="40" y="85" type="line"/>
      <point x="40" y="0" type="line"/>
      <point x="570" y="0" type="line"/>
      <point x="570" y="75" type="line"/>
      <point x="195" y="75" type="line"/>
      <point x="570" y="470" type="line"/>
      <point x="570" y="555" type="line"/>
      <point x="40" y="555" type="line"/>
      <point x="40" y="480" type="line"/>
      <point x="420" y="480" type="line"/>
    </contour>
  </outline>
</glyph>
<glyph name="Zdotaccent" format="1">
  <advance width="743"/>
  <unicode hex="017B"/>
  <outline>
    <contour>
      <point x="312" y="999" type="line"/>
      <point x="312" y="903" type="line"/>
      <point x="432" y="903" type="line"/>
      <point x="432" y="999" type="line"/>
    </contour>
    <contour>
      <point x="723" y="0" type="line"/>
      <point x="723" y="85" type="line"/>
      <point x="185" y="85" type="line"/>
      <point x="723" y="682" type="line"/>
      <point x="723" y="777" type="line"/>
      <point x="20" y="777" type="line"/>
      <point x="20" y="692" type="line"/>
      <point x="558" y="692" type="line"/>
      <point x="20" y="95" type="line"/>
      <point x="20" y="0" type="line"/>
    </contour>
  </outline>
</glyph>
<glyph name="circumflex" format="1">
  <advance width="1204"/>
  <unicode hex="02C6"/>
  <outline>
    <contour>
      <point x="556" y="821" type="line"/>
      <point x="380" y="633" type="line"/>
      <point x="447" y="633" type="line"/>
      <point x="601" y="739" type="line"/>
      <point x="755" y="633" type="line"/>
      <point x="822" y="633" type="line"/>
      <point x="646" y="821" type="line"/>
    </contour>
    <contour>
      <point x="601" y="613" type="move" name="_top"/>
    </contour>
  </outline>
</glyph>
<glyph name="ring" format="1">
  <advance width="1204"/>
  <unicode hex="02DA"/>
  <outline>
    <contour>
      <point x="492" y="729" type="curve" smooth="yes"/>
      <point x="492" y="670"/>
      <point x="542" y="620"/>
      <point x="601" y="620" type="curve" smooth="yes"/>
      <point x="661" y="620"/>
      <point x="712" y="670"/>
      <point x="712" y="729" type="curve" smooth="yes"/>
      <point x="712" y="793"/>
      <point x="664" y="840"/>
      <point x="601" y="840" type="curve" smooth="yes"/>
      <point x="541" y="840"/>
      <point x="492" y="789"/>
    </contour>
    <contour>
      <point x="553" y="730" type="curve" smooth="yes"/>
      <point x="553" y="758"/>
      <point x="574" y="779"/>
      <point x="602" y="779" type="curve" smooth="yes"/>
      <point x="630" y="779"/>
      <point x="651" y="755"/>
      <point x="651" y="730" type="curve" smooth="yes"/>
      <point x="651" y="704"/>
      <point x="630" y="681"/>
      <point x="602" y="681" type="curve" smooth="yes"/>
      <point x="574" y="681"/>
      <point x="553" y="702"/>
    </contour>
    <contour>
      <point x="601" y="613" type="move" name="_top"/>
    </contour>
  </outline>
</glyph>
<glyph name="uni0344" format="1">
  <advance width="548"/>
  <unicode hex="0344"/>
  <outline>
    <contour>
      <point x="296" y="821" type="line"/>
      <point x="180" y="633" type="line"/>
      <point x="247" y="633" type="line"/>
      <point x="446" y="821" type="line"/>
    </contour>
    <contour>
      <point x="19" y="633" type="line"/>
      <point x="139" y="633" type="line"/>
      <point x="139" y="729" type="line"/>
      <point x="19" y="729" type="line"/>
    </contour>
    <contour>
      <point x="409" y="633" type="line"/>
      <point x="529" y="633" type="line"/>
      <point x="529" y="729" type="line"/>
      <point x="409" y="729" type="line"/>
    </contour>
    <contour>
      <point x="179" y="613" type="move" name="_top"/>
    </contour>
  </outline>
</glyph>
<glyph name="tonos" format="1">
  <advance width="366"/>
  <unicode hex="0384"/>
  <outline>
    <contour>
      <point x="166" y="821" type="line"/>
      <point x="50" y="633" type="line"/>
      <point x="117" y="633" type="line"/>
      <point x="316" y="821" type="line"/>
    </contour>
    <contour>
      <point x="117" y="613" type="move" name="_top"/>
    </contour>
  </outline>
</glyph>
<glyph name="anoteleia" format="1">
  <advance width="310"/>
  <unicode hex="0387"/>
  <outline>
    <contour>
      <point x="90" y="410" type="line"/>
      <point x="220" y="410" type="line"/>
      <point x="220" y="555" type="line"/>
      <point x="90" y="555" type="line"/>
    </contour>
  </outline>
</glyph>
<glyph name="Gamma" format="1">
  <advance width="745"/>
  <unicode hex="0393"/>
  <outline>
    <contour>
      <point x="90" y="0" type="line"/>
      <point x="220" y="0" type="line"/>
      <point x="220" y="692" type="line"/>
      <point x="676" y="692" type="line"/>
      <point x="676" y="777" type="line"/>
      <point x="90" y="777" type="line"/>
    </contour>
  </outline>
</glyph>
<glyph name="uni0394" format="1">
  <advance width="974"/>
  <unicode hex="0394"/>
  <outline>
    <contour>
      <point x="594" y="777" type="line"/>
      <point x="380" y="777" type="line"/>
      <point x="20" y="0" type="line"/>
      <point x="954" y="0" type="line"/>
    </contour>
    <contour>
      <point x="470" y="692" type="line"/>
      <point x="505" y="692" type="line"/>
      <point x="777" y="85" type="line"/>
      <point x="196" y="85" type="line"/>
    </contour>
  </outline>
</glyph>
<glyph name="Zeta" format="1">
  <advance width="743"/>
  <unicode hex="0396"/>
  <outline>
    <contour>
      <point x="723" y="85" type="line"/>
      <point x="165" y="85" type="line"/>
      <point x="723" y="682" type="line"/>
      <point x="723" y="777" type="line"/>
      <point x="20" y="777" type="line"/>
      <point x="20" y="692" type="line"/>
      <point x="578" y="692" type="line"/>
      <point x="20" y="95" type="line"/>
      <point x="20" y="0" type="line"/>
      <point x="723" y="0" type="line"/>
    </contour>
  </outline>
</glyph>
<glyph name="Zeta" format="1">
  <advance width="743"/>
  <unicode hex="0396"/>
  <outline>
    <contour>
      <point x="723" y="85" type="line"/>
      <point x="165" y="85" type="line"/>
      <point x="723" y="682" type="line"/>
      <point x="723" y="777" type="line"/>
      <point x="20" y="777" type="line"/>
      <point x="20" y="692" type="line"/>
      <point x="578" y="692" type="line"/>
      <point x="20" y="95" type="line"/>
      <point x="20" y="0" type="line"/>
      <point x="723" y="0" type="line"/>
    </contour>
  </outline>
</glyph>
<glyph name="Kappa" format="1">
  <advance width="862"/>
  <unicode hex="039A"/>
  <outline>
    <contour>
      <point x="692" y="0" type="line"/>
      <point x="842" y="0" type="line"/>
      <point x="432" y="467" type="line"/>
      <point x="782" y="777" type="line"/>
      <point x="622" y="777" type="line"/>
      <point x="220" y="409" type="line"/>
      <point x="220" y="777" type="line"/>
      <point x="90" y="777" type="line"/>
      <point x="90" y="0" type="line"/>
      <point x="220" y="0" type="line"/>
      <point x="220" y="280" type="line"/>
      <point x="347" y="393" type="line"/>
    </contour>
  </outline>
</glyph>
<glyph name="Lambda" format="1">
  <advance width="974"/>
  <unicode hex="039B"/>
  <outline>
    <contour>
      <point x="470" y="692" type="line"/>
      <point x="505" y="692" type="line"/>
      <point x="815" y="0" type="line"/>
      <point x="954" y="0" type="line"/>
      <point x="594" y="777" type="line"/>
      <point x="380" y="777" type="line"/>
      <point x="20" y="0" type="line"/>
      <point x="158" y="0" type="line"/>
    </contour>
  </outline>
</glyph>
<glyph name="Mu" format="1">
  <advance width="1222"/>
  <unicode hex="039C"/>
  <outline>
    <contour>
      <point x="611" y="85" type="line"/>
      <point x="290" y="777" type="line"/>
      <point x="90" y="777" type="line"/>
      <point x="90" y="0" type="line"/>
      <point x="220" y="0" type="line"/>
      <point x="220" y="642" type="line"/>
      <point x="526" y="0" type="line"/>
      <point x="696" y="0" type="line"/>
      <point x="1002" y="642" type="line"/>
      <point x="1002" y="0" type="line"/>
      <point x="1132" y="0" type="line"/>
      <point x="1132" y="777" type="line"/>
      <point x="932" y="777" type="line"/>
    </contour>
  </outline>
</glyph>
<glyph name="Nu" format="1">
  <advance width="931"/>
  <unicode hex="039D"/>
  <outline>
    <contour>
      <point x="841" y="777" type="line"/>
      <point x="711" y="777" type="line"/>
      <point x="711" y="135" type="line"/>
      <point x="250" y="777" type="line"/>
      <point x="90" y="777" type="line"/>
      <point x="90" y="0" type="line"/>
      <point x="220" y="0" type="line"/>
      <point x="220" y="642" type="line"/>
      <point x="681" y="0" type="line"/>
      <point x="841" y="0" type="line"/>
    </contour>
  </outline>
</glyph>
<glyph name="Omicron" format="1">
  <advance width="1027"/>
  <unicode hex="039F"/>
  <outline>
    <contour>
      <point x="967" y="388" type="curve"/>
      <point x="967" y="622"/>
      <point x="789" y="791"/>
      <point x="513" y="791" type="curve" smooth="yes"/>
      <point x="237" y="791"/>
      <point x="60" y="622"/>
      <point x="60" y="388" type="curve" smooth="yes"/>
      <point x="60" y="155"/>
      <point x="237" y="-14"/>
      <point x="513" y="-14" type="curve" smooth="yes"/>
      <point x="789" y="-14"/>
      <point x="967" y="155"/>
    </contour>
    <contour>
      <point x="830" y="388" type="curve"/>
      <point x="830" y="217"/>
      <point x="702" y="85"/>
      <point x="513" y="85" type="curve" smooth="yes"/>
      <point x="325" y="85"/>
      <point x="197" y="217"/>
      <point x="197" y="388" type="curve" smooth="yes"/>
      <point x="197" y="560"/>
      <point x="325" y="692"/>
      <point x="513" y="692" type="curve" smooth="yes"/>
      <point x="702" y="692"/>
      <point x="830" y="560"/>
    </contour>
  </outline>
</glyph>
<glyph name="Pi" format="1">
  <advance width="910"/>
  <unicode hex="03A0"/>
  <outline>
    <contour>
      <point x="660" y="0" type="line"/>
      <point x="790" y="0" type="line"/>
      <point x="790" y="692" type="line"/>
      <point x="910" y="692" type="line"/>
      <point x="910" y="777" type="line"/>
      <point x="0" y="777" type="line"/>
      <point x="0" y="692" type="line"/>
      <point x="120" y="692" type="line"/>
      <point x="120" y="0" type="line"/>
      <point x="250" y="0" type="line"/>
      <point x="250" y="692" type="line"/>
      <point x="660" y="692" type="line"/>
    </contour>
  </outline>
</glyph>
<glyph name="Pi" format="1">
  <advance width="910"/>
  <unicode hex="03A0"/>
  <outline>
    <contour>
      <point x="660" y="0" type="line"/>
      <point x="790" y="0" type="line"/>
      <point x="790" y="692" type="line"/>
      <point x="910" y="692" type="line"/>
      <point x="910" y="777" type="line"/>
      <point x="0" y="777" type="line"/>
      <point x="0" y="692" type="line"/>
      <point x="120" y="692" type="line"/>
      <point x="120" y="0" type="line"/>
      <point x="250" y="0" type="line"/>
      <point x="250" y="692" type="line"/>
      <point x="660" y="692" type="line"/>
    </contour>
  </outline>
</glyph>
<glyph name="Sigma" format="1">
  <advance width="833"/>
  <unicode hex="03A3"/>
  <outline>
    <contour>
      <point x="753" y="777" type="line"/>
      <point x="90" y="777" type="line"/>
      <point x="90" y="665" type="line"/>
      <point x="456" y="389" type="line"/>
      <point x="90" y="95" type="line"/>
      <point x="90" y="0" type="line"/>
      <point x="773" y="0" type="line"/>
      <point x="773" y="85" type="line"/>
      <point x="235" y="85" type="line"/>
      <point x="590" y="363" type="line"/>
      <point x="590" y="425" type="line"/>
      <point x="230" y="692" type="line"/>
      <point x="753" y="692" type="line"/>
    </contour>
  </outline>
</glyph>
<glyph name="Upsilon" format="1">
  <advance width="852"/>
  <unicode hex="03A5"/>
  <outline>
    <contour>
      <point x="361" y="377" type="line"/>
      <point x="361" y="0" type="line"/>
      <point x="491" y="0" type="line"/>
      <point x="491" y="377" type="line"/>
      <point x="842" y="777" type="line"/>
      <point x="692" y="777" type="line"/>
      <point x="426" y="474" type="line"/>
      <point x="160" y="777" type="line"/>
      <point x="10" y="777" type="line"/>
    </contour>
  </outline>
</glyph>
<glyph name="Chi" format="1">
  <advance width="852"/>
  <unicode hex="03A7"/>
  <outline>
    <contour>
      <point x="10" y="0" type="line"/>
      <point x="160" y="0" type="line"/>
      <point x="426" y="303" type="line"/>
      <point x="692" y="0" type="line"/>
      <point x="842" y="0" type="line"/>
      <point x="501" y="389" type="line"/>
      <point x="842" y="777" type="line"/>
      <point x="692" y="777" type="line"/>
      <point x="426" y="474" type="line"/>
      <point x="160" y="777" type="line"/>
      <point x="10" y="777" type="line"/>
      <point x="351" y="389" type="line"/>
    </contour>
  </outline>
</glyph>
<glyph name="Psi" format="1">
  <advance width="1167"/>
  <unicode hex="03A8"/>
  <outline>
    <contour>
      <point x="517" y="777" type="line"/>
      <point x="517" y="257" type="line"/>
      <point x="355" y="271"/>
      <point x="227" y="346"/>
      <point x="227" y="508" type="curve" smooth="yes"/>
      <point x="227" y="777" type="line"/>
      <point x="90" y="777" type="line"/>
      <point x="90" y="508" type="line" smooth="yes"/>
      <point x="90" y="291"/>
      <point x="262" y="190"/>
      <point x="517" y="177" type="curve"/>
      <point x="517" y="0" type="line"/>
      <point x="647" y="0" type="line"/>
      <point x="647" y="178" type="line"/>
      <point x="889" y="195"/>
      <point x="1077" y="296"/>
      <point x="1077" y="508" type="curve" smooth="yes"/>
      <point x="1077" y="777" type="line"/>
      <point x="940" y="777" type="line"/>
      <point x="940" y="508" type="line" smooth="yes"/>
      <point x="940" y="351"/>
      <point x="806" y="276"/>
      <point x="647" y="259" type="curve"/>
      <point x="647" y="777" type="line"/>
    </contour>
  </outline>
</glyph>
<glyph name="Psi" format="1">
  <advance width="1167"/>
  <unicode hex="03A8"/>
  <outline>
    <contour>
      <point x="517" y="777" type="line"/>
      <point x="517" y="257" type="line"/>
      <point x="355" y="271"/>
      <point x="227" y="346"/>
      <point x="227" y="508" type="curve" smooth="yes"/>
      <point x="227" y="777" type="line"/>
      <point x="90" y="777" type="line"/>
      <point x="90" y="508" type="line" smooth="yes"/>
      <point x="90" y="291"/>
      <point x="262" y="190"/>
      <point x="517" y="177" type="curve"/>
      <point x="517" y="0" type="line"/>
      <point x="647" y="0" type="line"/>
      <point x="647" y="178" type="line"/>
      <point x="889" y="195"/>
      <point x="1077" y="296"/>
      <point x="1077" y="508" type="curve" smooth="yes"/>
      <point x="1077" y="777" type="line"/>
      <point x="940" y="777" type="line"/>
      <point x="940" y="508" type="line" smooth="yes"/>
      <point x="940" y="351"/>
      <point x="806" y="276"/>
      <point x="647" y="259" type="curve"/>
      <point x="647" y="777" type="line"/>
    </contour>
  </outline>
</glyph>
<glyph name="alpha" format="1">
  <advance width="817"/>
  <unicode hex="03B1"/>
  <outline>
    <contour>
      <point x="635" y="264" type="curve"/>
      <point x="731" y="555" type="line"/>
      <point x="611" y="555" type="line"/>
      <point x="543" y="300" type="line" smooth="yes"/>
      <point x="542" y="297"/>
      <point x="541" y="294"/>
      <point x="540" y="290" type="curve"/>
      <point x="541" y="452"/>
      <point x="450" y="569"/>
      <point x="315" y="569" type="curve" smooth="yes"/>
      <point x="149" y="569"/>
      <point x="60" y="418"/>
      <point x="60" y="270" type="curve" smooth="yes"/>
      <point x="60" y="117"/>
      <point x="154" y="-14"/>
      <point x="312" y="-14" type="curve" smooth="yes"/>
      <point x="404" y="-14"/>
      <point x="507" y="51"/>
      <point x="557" y="188" type="curve"/>
      <point x="528" y="59"/>
      <point x="586" y="-14"/>
      <point x="667" y="-14" type="curve" smooth="yes"/>
      <point x="718" y="-14"/>
      <point x="765" y="13"/>
      <point x="777" y="36" type="curve"/>
      <point x="753" y="144" type="line"/>
      <point x="753" y="144"/>
      <point x="721" y="94"/>
      <point x="672" y="94" type="curve" smooth="yes"/>
      <point x="640" y="94"/>
      <point x="585" y="110"/>
    </contour>
    <contour>
      <point x="186" y="274" type="curve" smooth="yes"/>
      <point x="186" y="376"/>
      <point x="242" y="480"/>
      <point x="349" y="480" type="curve" smooth="yes"/>
      <point x="439" y="480"/>
      <point x="508" y="405"/>
      <point x="517" y="223" type="curve"/>
      <point x="474" y="124"/>
      <point x="412" y="77"/>
      <point x="338" y="77" type="curve" smooth="yes"/>
      <point x="249" y="77"/>
      <point x="186" y="145"/>
    </contour>
  </outline>
</glyph>
<glyph name="epsilon" format="1">
  <advance width="672"/>
  <unicode hex="03B5"/>
  <outline>
    <contour>
      <point x="508" y="221" type="line"/>
      <point x="508" y="221"/>
      <point x="507" y="75"/>
      <point x="348" y="75" type="curve" smooth="yes"/>
      <point x="257" y="75"/>
      <point x="184" y="101"/>
      <point x="184" y="168" type="curve" smooth="yes"/>
      <point x="184" y="207"/>
      <point x="225" y="247"/>
      <point x="310" y="247" type="curve" smooth="yes"/>
      <point x="417" y="247" type="line"/>
      <point x="417" y="318" type="line"/>
      <point x="310" y="318" type="line" smooth="yes"/>
      <point x="228" y="318"/>
      <point x="196" y="357"/>
      <point x="196" y="387" type="curve" smooth="yes"/>
      <point x="196" y="447"/>
      <point x="263" y="480"/>
      <point x="328" y="480" type="curve" smooth="yes"/>
      <point x="459" y="480"/>
      <point x="500" y="387"/>
      <point x="492" y="308" type="curve"/>
      <point x="616" y="344" type="line"/>
      <point x="611" y="429"/>
      <point x="555" y="569"/>
      <point x="328" y="569" type="curve" smooth="yes"/>
      <point x="199" y="569"/>
      <point x="76" y="508"/>
      <point x="76" y="409" type="curve" smooth="yes"/>
      <point x="76" y="333"/>
      <point x="147" y="294"/>
      <point x="265" y="291" type="curve"/>
      <point x="130" y="282"/>
      <point x="60" y="228"/>
      <point x="60" y="151" type="curve" smooth="yes"/>
      <point x="60" y="67"/>
      <point x="143" y="-14"/>
      <point x="333" y="-14" type="curve" smooth="yes"/>
      <point x="596" y="-14"/>
      <point x="632" y="185"/>
      <point x="632" y="185" type="curve"/>
    </contour>
  </outline>
</glyph>
<glyph name="eta" format="1">
  <advance width="748"/>
  <unicode hex="03B7"/>
  <outline>
    <contour>
      <point x="538" y="-223" type="line"/>
      <point x="658" y="-223" type="line"/>
      <point x="658" y="344" type="line" smooth="yes"/>
      <point x="658" y="484"/>
      <point x="590" y="569"/>
      <point x="425" y="569" type="curve"/>
      <point x="213" y="569"/>
      <point x="199" y="390"/>
      <point x="199" y="390" type="curve"/>
      <point x="148" y="555" type="line"/>
      <point x="90" y="555" type="line"/>
      <point x="90" y="0" type="line"/>
      <point x="210" y="0" type="line"/>
      <point x="210" y="330" type="line"/>
      <point x="210" y="364"/>
      <point x="230" y="480"/>
      <point x="381" y="480" type="curve"/>
      <point x="481" y="480"/>
      <point x="538" y="435"/>
      <point x="538" y="342" type="curve"/>
    </contour>
    <contour>
      <point x="373" y="613" type="move" name="top"/>
    </contour>
  </outline>
</glyph>
<glyph name="theta" format="1">
  <advance width="740"/>
  <unicode hex="03B8"/>
  <outline>
    <contour>
      <point x="680" y="389" type="curve" smooth="yes"/>
      <point x="680" y="622"/>
      <point x="577" y="791"/>
      <point x="370" y="791" type="curve" smooth="yes"/>
      <point x="163" y="791"/>
      <point x="60" y="622"/>
      <point x="60" y="389" type="curve" smooth="yes"/>
      <point x="60" y="155"/>
      <point x="163" y="-14"/>
      <point x="370" y="-14" type="curve" smooth="yes"/>
      <point x="577" y="-14"/>
      <point x="680" y="155"/>
    </contour>
    <contour>
      <point x="370" y="692" type="curve" smooth="yes"/>
      <point x="489" y="692"/>
      <point x="549" y="579"/>
      <point x="557" y="427" type="curve"/>
      <point x="183" y="427" type="line"/>
      <point x="191" y="579"/>
      <point x="251" y="692"/>
    </contour>
    <contour>
      <point x="370" y="85" type="curve"/>
      <point x="250" y="85"/>
      <point x="191" y="198"/>
      <point x="183" y="352" type="curve"/>
      <point x="557" y="352" type="line"/>
      <point x="549" y="198"/>
      <point x="490" y="85"/>
    </contour>
  </outline>
</glyph>
<glyph name="iota" format="1">
  <advance width="300"/>
  <unicode hex="03B9"/>
  <outline>
    <contour>
      <point x="90" y="0" type="line"/>
      <point x="210" y="0" type="line"/>
      <point x="210" y="555" type="line"/>
      <point x="90" y="555" type="line"/>
    </contour>
  </outline>
</glyph>
<glyph name="omicron" format="1">
  <advance width="750"/>
  <unicode hex="03BF"/>
  <outline>
    <contour>
      <point x="60" y="278" type="curve"/>
      <point x="60" y="114"/>
      <point x="177" y="-14"/>
      <point x="375" y="-14" type="curve" smooth="yes"/>
      <point x="573" y="-14"/>
      <point x="690" y="114"/>
      <point x="690" y="278" type="curve" smooth="yes"/>
      <point x="690" y="441"/>
      <point x="573" y="569"/>
      <point x="375" y="569" type="curve" smooth="yes"/>
      <point x="177" y="569"/>
      <point x="60" y="441"/>
    </contour>
    <contour>
      <point x="188" y="278" type="curve"/>
      <point x="188" y="398"/>
      <point x="259" y="480"/>
      <point x="375" y="480" type="curve" smooth="yes"/>
      <point x="489" y="480"/>
      <point x="562" y="398"/>
      <point x="562" y="278" type="curve" smooth="yes"/>
      <point x="562" y="158"/>
      <point x="489" y="75"/>
      <point x="375" y="75" type="curve" smooth="yes"/>
      <point x="259" y="75"/>
      <point x="188" y="158"/>
    </contour>
  </outline>
</glyph>
<glyph name="sigma1" format="1">
  <advance width="691"/>
  <unicode hex="03C2"/>
  <outline>
    <contour>
      <point x="479" y="-67" type="curve" smooth="yes"/>
      <point x="479" y="-113"/>
      <point x="436" y="-148"/>
      <point x="361" y="-148" type="curve" smooth="yes"/>
      <point x="276" y="-148"/>
      <point x="274" y="-82"/>
      <point x="274" y="-82" type="curve"/>
      <point x="160" y="-118" type="line"/>
      <point x="160" y="-118"/>
      <point x="179" y="-237"/>
      <point x="360" y="-237" type="curve" smooth="yes"/>
      <point x="497" y="-237"/>
      <point x="607" y="-170"/>
      <point x="607" y="-63" type="curve" smooth="yes"/>
      <point x="607" y="176"/>
      <point x="188" y="66"/>
      <point x="188" y="298" type="curve" smooth="yes"/>
      <point x="188" y="406"/>
      <point x="249" y="480"/>
      <point x="363" y="480" type="curve" smooth="yes"/>
      <point x="494" y="480"/>
      <point x="535" y="377"/>
      <point x="527" y="278" type="curve"/>
      <point x="651" y="314" type="line"/>
      <point x="646" y="419"/>
      <point x="590" y="569"/>
      <point x="363" y="569" type="curve" smooth="yes"/>
      <point x="173" y="569"/>
      <point x="60" y="454"/>
      <point x="60" y="308" type="curve" smooth="yes"/>
      <point x="60" y="-13"/>
      <point x="479" y="82"/>
    </contour>
  </outline>
</glyph>
<glyph name="tau" format="1">
  <advance width="552"/>
  <unicode hex="03C4"/>
  <outline>
    <contour>
      <point x="20" y="480" type="line"/>
      <point x="184" y="480" type="line"/>
      <point x="184" y="188" type="line" smooth="yes"/>
      <point x="184" y="49"/>
      <point x="247" y="-14"/>
      <point x="366" y="-14" type="curve" smooth="yes"/>
      <point x="489" y="-14"/>
      <point x="532" y="66"/>
      <point x="532" y="66" type="curve"/>
      <point x="508" y="155" type="line"/>
      <point x="508" y="155"/>
      <point x="488" y="75"/>
      <point x="391" y="75" type="curve"/>
      <point x="327" y="75"/>
      <point x="304" y="114"/>
      <point x="304" y="201" type="curve" smooth="yes"/>
      <point x="304" y="480" type="line"/>
      <point x="492" y="480" type="line"/>
      <point x="492" y="555" type="line"/>
      <point x="20" y="555" type="line"/>
    </contour>
  </outline>
</glyph>
<glyph name="psi" format="1">
  <advance width="941"/>
  <unicode hex="03C8"/>
  <outline>
    <contour>
      <point x="430" y="-223" type="line"/>
      <point x="550" y="-223" type="line"/>
      <point x="550" y="-11" type="line"/>
      <point x="766" y="9"/>
      <point x="881" y="131"/>
      <point x="881" y="308" type="curve" smooth="yes"/>
      <point x="881" y="390"/>
      <point x="868" y="463"/>
      <point x="849" y="555" type="curve"/>
      <point x="725" y="555" type="line"/>
      <point x="746" y="464"/>
      <point x="764" y="384"/>
      <point x="764" y="308" type="curve" smooth="yes"/>
      <point x="764" y="175"/>
      <point x="691" y="96"/>
      <point x="550" y="79" type="curve"/>
      <point x="550" y="685" type="line"/>
      <point x="430" y="685" type="line"/>
      <point x="430" y="78" type="line"/>
      <point x="290" y="94"/>
      <point x="218" y="177"/>
      <point x="218" y="327" type="curve" smooth="yes"/>
      <point x="218" y="555" type="line"/>
      <point x="90" y="555" type="line"/>
      <point x="90" y="328" type="line" smooth="yes"/>
      <point x="90" y="129"/>
      <point x="200" y="5"/>
      <point x="430" y="-12" type="curve"/>
    </contour>
  </outline>
</glyph>
<glyph name="omega" format="1">
  <advance width="1052"/>
  <unicode hex="03C9"/>
  <outline>
    <contour>
      <point x="590" y="400" type="line"/>
      <point x="462" y="400" type="line"/>
      <point x="462" y="269" type="line" smooth="yes"/>
      <point x="462" y="137"/>
      <point x="403" y="78"/>
      <point x="329" y="78" type="curve" smooth="yes"/>
      <point x="262" y="78"/>
      <point x="188" y="140"/>
      <point x="188" y="278" type="curve" smooth="yes"/>
      <point x="188" y="411"/>
      <point x="243" y="477"/>
      <point x="356" y="477" type="curve" smooth="yes"/>
      <point x="371" y="477"/>
      <point x="389" y="476"/>
      <point x="405" y="468" type="curve"/>
      <point x="375" y="561" type="line"/>
      <point x="361" y="563"/>
      <point x="348" y="564"/>
      <point x="335" y="564" type="curve" smooth="yes"/>
      <point x="173" y="564"/>
      <point x="60" y="444"/>
      <point x="60" y="278" type="curve" smooth="yes"/>
      <point x="60" y="80"/>
      <point x="181" y="-14"/>
      <point x="303" y="-14" type="curve" smooth="yes"/>
      <point x="402" y="-14"/>
      <point x="502" y="38"/>
      <point x="526" y="231" type="curve"/>
      <point x="550" y="46"/>
      <point x="642" y="-14"/>
      <point x="741" y="-14" type="curve" smooth="yes"/>
      <point x="865" y="-14"/>
      <point x="992" y="81"/>
      <point x="992" y="278" type="curve" smooth="yes"/>
      <point x="992" y="452"/>
      <point x="866" y="564"/>
      <point x="719" y="564" type="curve" smooth="yes"/>
      <point x="705" y="564"/>
      <point x="691" y="563"/>
      <point x="677" y="561" type="curve"/>
      <point x="647" y="468" type="line"/>
      <point x="662" y="475"/>
      <point x="676" y="477"/>
      <point x="690" y="477" type="curve" smooth="yes"/>
      <point x="792" y="477"/>
      <point x="864" y="411"/>
      <point x="864" y="278" type="curve" smooth="yes"/>
      <point x="864" y="140"/>
      <point x="790" y="78"/>
      <point x="724" y="78" type="curve" smooth="yes"/>
      <point x="643" y="78"/>
      <point x="590" y="140"/>
      <point x="590" y="268" type="curve" smooth="yes"/>
    </contour>
  </outline>
</glyph>
<glyph name="endash" format="1">
  <advance width="510"/>
  <unicode hex="2013"/>
  <outline>
    <contour>
      <point x="490" y="300" type="line"/>
      <point x="20" y="300" type="line"/>
      <point x="20" y="250" type="line"/>
      <point x="490" y="250" type="line"/>
    </contour>
    <contour>
      <point x="252" y="568" type="move" name="_top"/>
    </contour>
  </outline>
</glyph>
<glyph name="emdash" format="1">
  <advance width="797"/>
  <unicode hex="2014"/>
  <outline>
    <contour>
      <point x="777" y="300" type="line"/>
      <point x="20" y="300" type="line"/>
      <point x="20" y="250" type="line"/>
      <point x="777" y="250" type="line"/>
    </contour>
    <contour>
      <point x="232" y="568" type="move" name="_top"/>
    </contour>
  </outline>
</glyph>
<glyph name="quoteleft" format="1">
  <advance width="310"/>
  <unicode hex="2018"/>
  <outline>
    <contour>
      <point x="90" y="481" type="line"/>
      <point x="220" y="481" type="line"/>
      <point x="220" y="626" type="line"/>
      <point x="149" y="626" type="line"/>
      <point x="169" y="723"/>
      <point x="258" y="776"/>
      <point x="258" y="776" type="curve"/>
      <point x="170" y="802" type="line"/>
      <point x="170" y="802"/>
      <point x="90" y="724"/>
      <point x="90" y="601" type="curve" smooth="yes"/>
    </contour>
  </outline>
</glyph>
<glyph name="quoteright" format="1">
  <advance width="310"/>
  <unicode hex="2019"/>
  <outline>
    <contour>
      <point x="220" y="802" type="line"/>
      <point x="90" y="802" type="line"/>
      <point x="90" y="657" type="line"/>
      <point x="161" y="657" type="line"/>
      <point x="141" y="560"/>
      <point x="52" y="507"/>
      <point x="52" y="507" type="curve"/>
      <point x="140" y="481" type="line"/>
      <point x="140" y="481"/>
      <point x="220" y="559"/>
      <point x="220" y="682" type="curve" smooth="yes"/>
    </contour>
  </outline>
</glyph>
<glyph name="quotedblleft" format="1">
  <advance width="560"/>
  <unicode hex="201C"/>
  <outline>
    <contour>
      <point x="302" y="480" type="line"/>
      <point x="432" y="480" type="line"/>
      <point x="432" y="625" type="line"/>
      <point x="361" y="625" type="line"/>
      <point x="381" y="722"/>
      <point x="470" y="775"/>
      <point x="470" y="775" type="curve"/>
      <point x="382" y="801" type="line"/>
      <point x="382" y="801"/>
      <point x="302" y="723"/>
      <point x="302" y="600" type="curve"/>
    </contour>
    <contour>
      <point x="52" y="480" type="line"/>
      <point x="182" y="480" type="line"/>
      <point x="182" y="625" type="line"/>
      <point x="111" y="625" type="line"/>
      <point x="131" y="722"/>
      <point x="220" y="775"/>
      <point x="220" y="775" type="curve"/>
      <point x="132" y="801" type="line"/>
      <point x="132" y="801"/>
      <point x="52" y="723"/>
      <point x="52" y="600" type="curve" smooth="yes"/>
    </contour>
  </outline>
</glyph>
<glyph name="quotedblright" format="1">
  <advance width="560"/>
  <unicode hex="201D"/>
  <outline>
    <contour>
      <point x="220" y="801" type="line"/>
      <point x="90" y="801" type="line"/>
      <point x="90" y="656" type="line"/>
      <point x="161" y="656" type="line"/>
      <point x="141" y="559"/>
      <point x="52" y="506"/>
      <point x="52" y="506" type="curve"/>
      <point x="140" y="480" type="line"/>
      <point x="140" y="480"/>
      <point x="220" y="558"/>
      <point x="220" y="681" type="curve"/>
    </contour>
    <contour>
      <point x="470" y="801" type="line"/>
      <point x="340" y="801" type="line"/>
      <point x="340" y="656" type="line"/>
      <point x="411" y="656" type="line"/>
      <point x="391" y="559"/>
      <point x="302" y="506"/>
      <point x="302" y="506" type="curve"/>
      <point x="390" y="480" type="line"/>
      <point x="390" y="480"/>
      <point x="470" y="558"/>
      <point x="470" y="681" type="curve" smooth="yes"/>
    </contour>
  </outline>
</glyph>
<glyph name="quotedblbase" format="1">
  <advance width="560"/>
  <unicode hex="201E"/>
  <outline>
    <contour>
      <point x="220" y="145" type="line"/>
      <point x="90" y="145" type="line"/>
      <point x="90" y="0" type="line"/>
      <point x="161" y="0" type="line"/>
      <point x="141" y="-97"/>
      <point x="52" y="-150"/>
      <point x="52" y="-150" type="curve"/>
      <point x="140" y="-176" type="line"/>
      <point x="140" y="-176"/>
      <point x="220" y="-98"/>
      <point x="220" y="25" type="curve"/>
    </contour>
    <contour>
      <point x="470" y="145" type="line"/>
      <point x="340" y="145" type="line"/>
      <point x="340" y="0" type="line"/>
      <point x="411" y="0" type="line"/>
      <point x="391" y="-97"/>
      <point x="302" y="-150"/>
      <point x="302" y="-150" type="curve"/>
      <point x="390" y="-176" type="line"/>
      <point x="390" y="-176"/>
      <point x="470" y="-98"/>
      <point x="470" y="25" type="curve" smooth="yes"/>
    </contour>
  </outline>
</glyph>
<glyph name="dagger" format="1">
  <advance width="480"/>
  <unicode hex="2020"/>
  <outline>
    <contour>
      <point x="460" y="480" type="line"/>
      <point x="460" y="555" type="line"/>
      <point x="300" y="555" type="line"/>
      <point x="285" y="777" type="line"/>
      <point x="195" y="777" type="line"/>
      <point x="180" y="555" type="line"/>
      <point x="20" y="555" type="line"/>
      <point x="20" y="480" type="line"/>
      <point x="180" y="480" type="line"/>
      <point x="180" y="-223" type="line"/>
      <point x="300" y="-223" type="line"/>
      <point x="300" y="480" type="line"/>
    </contour>
  </outline>
</glyph>
<glyph name="daggerdbl" format="1">
  <advance width="480"/>
  <unicode hex="2021"/>
  <outline>
    <contour>
      <point x="20" y="0" type="line"/>
      <point x="180" y="0" type="line"/>
      <point x="195" y="-223" type="line"/>
      <point x="285" y="-223" type="line"/>
      <point x="300" y="0" type="line"/>
      <point x="460" y="0" type="line"/>
      <point x="460" y="75" type="line"/>
      <point x="300" y="75" type="line"/>
      <point x="300" y="479" type="line"/>
      <point x="460" y="479" type="line"/>
      <point x="460" y="554" type="line"/>
      <point x="300" y="554" type="line"/>
      <point x="285" y="776" type="line"/>
      <point x="195" y="776" type="line"/>
      <point x="180" y="554" type="line"/>
      <point x="20" y="554" type="line"/>
      <point x="20" y="479" type="line"/>
      <point x="180" y="479" type="line"/>
      <point x="180" y="75" type="line"/>
      <point x="20" y="75" type="line"/>
    </contour>
  </outline>
</glyph>
<glyph name="ellipsis" format="1">
  <advance width="770"/>
  <unicode hex="2026"/>
  <outline>
    <contour>
      <point x="90" y="0" type="line"/>
      <point x="220" y="0" type="line"/>
      <point x="220" y="145" type="line"/>
      <point x="90" y="145" type="line"/>
    </contour>
    <contour>
      <point x="320" y="0" type="line"/>
      <point x="450" y="0" type="line"/>
      <point x="450" y="135" type="line"/>
      <point x="320" y="135" type="line"/>
    </contour>
    <contour>
      <point x="550" y="0" type="line"/>
      <point x="680" y="0" type="line"/>
      <point x="680" y="125" type="line"/>
      <point x="550" y="125" type="line"/>
    </contour>
  </outline>
</glyph>
<glyph name="guilsinglleft" format="1">
  <advance width="331"/>
  <unicode hex="2039"/>
  <outline>
    <contour>
      <point x="30" y="277" type="line"/>
      <point x="211" y="58" type="line"/>
      <point x="301" y="58" type="line"/>
      <point x="150" y="277" type="line"/>
      <point x="301" y="496" type="line"/>
      <point x="211" y="496" type="line"/>
    </contour>
  </outline>
</glyph>
<glyph name="fraction" format="1">
  <advance width="459"/>
  <unicode hex="2044"/>
  <outline>
    <contour>
      <point x="411" y="703" type="line" name="hr00"/>
      <point x="0" y="-61" type="line"/>
      <point x="46" y="-84" type="line"/>
      <point x="459" y="679" type="line"/>
    </contour>
  </outline>
</glyph>
<glyph name="Euro" format="1">
  <advance width="800"/>
  <unicode hex="20AC"/>
  <outline>
    <contour>
      <point x="520" y="332" type="line"/>
      <point x="200" y="332" type="line"/>
      <point x="198" y="350"/>
      <point x="197" y="369"/>
      <point x="197" y="388" type="curve" smooth="yes"/>
      <point x="197" y="407"/>
      <point x="198" y="425"/>
      <point x="199" y="442" type="curve"/>
      <point x="540" y="442" type="line"/>
      <point x="540" y="492" type="line"/>
      <point x="205" y="492" type="line"/>
      <point x="226" y="610"/>
      <point x="289" y="692"/>
      <point x="413" y="692" type="curve"/>
      <point x="629" y="692"/>
      <point x="609" y="429"/>
      <point x="609" y="429" type="curve"/>
      <point x="743" y="469" type="line"/>
      <point x="743" y="469"/>
      <point x="771" y="791"/>
      <point x="413" y="791" type="curve"/>
      <point x="222" y="791"/>
      <point x="102" y="670"/>
      <point x="69" y="492" type="curve"/>
      <point x="20" y="492" type="line"/>
      <point x="20" y="442" type="line"/>
      <point x="62" y="442" type="line"/>
      <point x="61" y="424"/>
      <point x="60" y="406"/>
      <point x="60" y="388" type="curve" smooth="yes"/>
      <point x="60" y="369"/>
      <point x="61" y="350"/>
      <point x="63" y="332" type="curve"/>
      <point x="0" y="332" type="line"/>
      <point x="0" y="282" type="line"/>
      <point x="70" y="282" type="line"/>
      <point x="106" y="105"/>
      <point x="233" y="-14"/>
      <point x="423" y="-14" type="curve"/>
      <point x="753" y="-14"/>
      <point x="760" y="293"/>
      <point x="760" y="293" type="curve"/>
      <point x="626" y="332" type="line"/>
      <point x="626" y="332"/>
      <point x="644" y="85"/>
      <point x="423" y="85" type="curve"/>
      <point x="300" y="85"/>
      <point x="231" y="165"/>
      <point x="207" y="282" type="curve"/>
      <point x="520" y="282" type="line"/>
    </contour>
    <contour>
      <point x="484" y="835" type="move" name="top"/>
    </contour>
    <contour>
      <point x="484" y="-29" type="move" name="bottom"/>
    </contour>
  </outline>
</glyph>
<glyph name="minus" format="1">
  <advance width="650"/>
  <unicode hex="2212"/>
  <outline>
    <contour>
      <point x="630" y="300" type="line"/>
      <point x="20" y="300" type="line"/>
      <point x="20" y="250" type="line"/>
      <point x="630" y="250" type="line"/>
    </contour>
    <contour>
      <point x="322" y="568" type="move" name="_top"/>
    </contour>
  </outline>
</glyph>
<glyph name="f_f" format="1">
  <advance width="844"/>
  <unicode hex="FB00"/>
  <outline>
    <contour>
      <point x="678" y="712" type="curve" smooth="yes"/>
      <point x="812" y="712"/>
      <point x="840" y="590"/>
      <point x="840" y="590" type="curve"/>
      <point x="964" y="626" type="line"/>
      <point x="964" y="626"/>
      <point x="910" y="791"/>
      <point x="674" y="791" type="curve"/>
      <point x="563" y="791"/>
      <point x="499" y="755"/>
      <point x="470" y="712" type="curve"/>
      <point x="440" y="754"/>
      <point x="389" y="791"/>
      <point x="298" y="791" type="curve"/>
      <point x="161" y="791"/>
      <point x="101" y="712"/>
      <point x="101" y="646" type="curve"/>
      <point x="101" y="575"/>
      <point x="170" y="555"/>
      <point x="170" y="555" type="curve"/>
      <point x="10" y="555" type="line"/>
      <point x="10" y="480" type="line"/>
      <point x="134" y="480" type="line"/>
      <point x="134" y="0" type="line"/>
      <point x="254" y="0" type="line"/>
      <point x="254" y="480" type="line"/>
      <point x="482" y="480" type="line"/>
      <point x="482" y="0" type="line"/>
      <point x="602" y="0" type="line"/>
      <point x="602" y="480" type="line"/>
      <point x="800" y="480" type="line"/>
      <point x="800" y="555" type="line"/>
      <point x="596" y="555" type="line"/>
      <point x="596" y="555"/>
      <point x="566" y="582"/>
      <point x="566" y="626" type="curve"/>
      <point x="566" y="679"/>
      <point x="609" y="712"/>
    </contour>
    <contour>
      <point x="322" y="712" type="curve" smooth="yes"/>
      <point x="389" y="712"/>
      <point x="427" y="680"/>
      <point x="449" y="648" type="curve"/>
      <point x="449" y="646" type="line"/>
      <point x="449" y="575"/>
      <point x="518" y="555"/>
      <point x="518" y="555" type="curve"/>
      <point x="248" y="555" type="line"/>
      <point x="248" y="555"/>
      <point x="218" y="584"/>
      <point x="218" y="628" type="curve"/>
      <point x="218" y="681"/>
      <point x="261" y="712"/>
    </contour>
  </outline>
</glyph>
<glyph name="f_l" format="1">
  <advance width="692"/>
  <unicode hex="FB02"/>
  <outline>
    <contour>
      <point x="482" y="0" type="line"/>
      <point x="602" y="0" type="line"/>
      <point x="602" y="777" type="line"/>
      <point x="602" y="777"/>
      <point x="546" y="766"/>
      <point x="482" y="766" type="curve"/>
      <point x="482" y="692" type="line"/>
      <point x="482" y="692"/>
      <point x="440" y="791"/>
      <point x="298" y="791" type="curve"/>
      <point x="161" y="791"/>
      <point x="101" y="712"/>
      <point x="101" y="646" type="curve" smooth="yes"/>
      <point x="101" y="577"/>
      <point x="166" y="556"/>
      <point x="169" y="555" type="curve"/>
      <point x="10" y="555" type="line"/>
      <point x="10" y="480" type="line"/>
      <point x="134" y="480" type="line"/>
      <point x="134" y="0" type="line"/>
      <point x="254" y="0" type="line"/>
      <point x="254" y="480" type="line"/>
      <point x="482" y="480" type="line"/>
    </contour>
    <contour>
      <point x="248" y="555" type="line"/>
      <point x="248" y="555"/>
      <point x="218" y="584"/>
      <point x="218" y="628" type="curve" smooth="yes"/>
      <point x="218" y="681"/>
      <point x="261" y="712"/>
      <point x="322" y="712" type="curve" smooth="yes"/>
      <point x="473" y="712"/>
      <point x="482" y="555"/>
      <point x="482" y="555" type="curve"/>
    </contour>
  </outline>
</glyph>
<glyph name="Q.alt" format="1">
  <advance width="988"/>
  <outline>
    <contour>
      <point x="443" y="6" type="line"/>
      <point x="708" y="-34"/>
      <point x="937" y="124"/>
      <point x="937" y="388" type="curve" smooth="yes"/>
      <point x="937" y="622"/>
      <point x="759" y="791"/>
      <point x="483" y="791" type="curve" smooth="yes"/>
      <point x="216" y="791"/>
      <point x="60" y="640"/>
      <point x="60" y="446" type="curve" smooth="yes"/>
      <point x="60" y="272"/>
      <point x="182" y="151"/>
      <point x="370" y="151" type="curve"/>
      <point x="698" y="151"/>
      <point x="692" y="443"/>
      <point x="692" y="443" type="curve"/>
      <point x="559" y="482" type="line"/>
      <point x="559" y="482"/>
      <point x="581" y="250"/>
      <point x="384" y="250" type="curve"/>
      <point x="253" y="250"/>
      <point x="197" y="338"/>
      <point x="197" y="439" type="curve" smooth="yes"/>
      <point x="197" y="575"/>
      <point x="295" y="692"/>
      <point x="483" y="692" type="curve" smooth="yes"/>
      <point x="672" y="692"/>
      <point x="800" y="560"/>
      <point x="800" y="388" type="curve" smooth="yes"/>
      <point x="800" y="217"/>
      <point x="672" y="85"/>
      <point x="481" y="85" type="curve" smooth="yes"/>
      <point x="423" y="85"/>
      <point x="373" y="101"/>
      <point x="373" y="101" type="curve"/>
      <point x="373" y="-37" type="line"/>
      <point x="919" y="-273" type="line"/>
      <point x="948" y="-165" type="line"/>
    </contour>
  </outline>
</glyph>
<glyph name="acute.case" format="1">
  <advance width="727"/>
  <outline>
    <contour>
      <point x="610" y="821" type="line"/>
      <point x="494" y="633" type="line"/>
      <point x="561" y="633" type="line"/>
      <point x="760" y="821" type="line"/>
    </contour>
    <contour>
      <point x="601" y="613" type="move" name="_top"/>
    </contour>
  </outline>
</glyph>
<glyph name="alpha.ss01" format="1">
  <advance width="791"/>
  <outline>
    <contour>
      <point x="537" y="452" type="line"/>
      <point x="537" y="452"/>
      <point x="488" y="569"/>
      <point x="338" y="569" type="curve" smooth="yes"/>
      <point x="172" y="569"/>
      <point x="60" y="447"/>
      <point x="60" y="277" type="curve" smooth="yes"/>
      <point x="60" y="107"/>
      <point x="172" y="-14"/>
      <point x="338" y="-14" type="curve" smooth="yes"/>
      <point x="509" y="-14"/>
      <point x="549" y="124"/>
      <point x="551" y="131" type="curve"/>
      <point x="551" y="115" type="line" smooth="yes"/>
      <point x="551" y="17"/>
      <point x="609" y="-14"/>
      <point x="671" y="-14" type="curve" smooth="yes"/>
      <point x="754" y="-14"/>
      <point x="791" y="36"/>
      <point x="791" y="36" type="curve"/>
      <point x="767" y="125" type="line"/>
      <point x="767" y="125"/>
      <point x="750" y="75"/>
      <point x="701" y="75" type="curve" smooth="yes"/>
      <point x="674" y="75"/>
      <point x="657" y="98"/>
      <point x="657" y="133" type="curve" smooth="yes"/>
      <point x="657" y="555" type="line"/>
      <point x="537" y="555" type="line"/>
    </contour>
    <contour>
      <point x="376" y="75" type="curve" smooth="yes"/>
      <point x="258" y="75"/>
      <point x="188" y="157"/>
      <point x="188" y="277" type="curve" smooth="yes"/>
      <point x="188" y="397"/>
      <point x="258" y="480"/>
      <point x="376" y="480" type="curve" smooth="yes"/>
      <point x="496" y="480"/>
      <point x="562" y="387"/>
      <point x="562" y="277" type="curve" smooth="yes"/>
      <point x="562" y="167"/>
      <point x="496" y="75"/>
    </contour>
  </outline>
</glyph>
<glyph name="circumflex.case" format="1">
  <advance width="1204"/>
  <outline>
    <contour>
      <point x="526" y="821" type="line"/>
      <point x="350" y="633" type="line"/>
      <point x="417" y="633" type="line"/>
      <point x="571" y="739" type="line"/>
      <point x="725" y="633" type="line"/>
      <point x="792" y="633" type="line"/>
      <point x="616" y="821" type="line"/>
    </contour>
    <contour>
      <point x="601" y="613" type="move" name="_top"/>
    </contour>
  </outline>
</glyph>
<glyph name="dieresis.case" format="1">
  <advance width="358"/>
  <outline>
    <contour>
      <point x="19" y="681" type="line"/>
      <point x="139" y="681" type="line"/>
      <point x="139" y="777" type="line"/>
      <point x="19" y="777" type="line"/>
    </contour>
    <contour>
      <point x="219" y="681" type="line"/>
      <point x="339" y="681" type="line"/>
      <point x="339" y="777" type="line"/>
      <point x="219" y="777" type="line"/>
    </contour>
    <contour>
      <point x="179" y="613" type="move" name="_top"/>
    </contour>
  </outline>
</glyph>
<glyph name="five.alt" format="1">
  <advance width="1064"/>
  <outline>
    <contour>
      <point x="60" y="311" type="curve" smooth="yes"/>
      <point x="60" y="46"/>
      <point x="267" y="-161"/>
      <point x="532" y="-161" type="curve" smooth="yes"/>
      <point x="797" y="-161"/>
      <point x="1004" y="46"/>
      <point x="1004" y="311" type="curve" smooth="yes"/>
      <point x="1004" y="576"/>
      <point x="797" y="783"/>
      <point x="532" y="783" type="curve" smooth="yes"/>
      <point x="267" y="783"/>
      <point x="60" y="576"/>
    </contour>
    <contour>
      <point x="116" y="310" type="curve" smooth="yes"/>
      <point x="116" y="541"/>
      <point x="301" y="726"/>
      <point x="532" y="726" type="curve" smooth="yes"/>
      <point x="763" y="726"/>
      <point x="948" y="541"/>
      <point x="948" y="310" type="curve" smooth="yes"/>
      <point x="948" y="79"/>
      <point x="763" y="-106"/>
      <point x="532" y="-106" type="curve" smooth="yes"/>
      <point x="301" y="-106"/>
      <point x="116" y="79"/>
    </contour>
    <contour>
      <point x="771" y="215" type="curve"/>
      <point x="771" y="330"/>
      <point x="674" y="408"/>
      <point x="567" y="408" type="curve" smooth="yes"/>
      <point x="450" y="408"/>
      <point x="414" y="335"/>
      <point x="414" y="335" type="curve"/>
      <point x="448" y="529" type="line"/>
      <point x="745" y="529" type="line"/>
      <point x="745" y="590" type="line"/>
      <point x="368" y="590" type="line"/>
      <point x="316" y="302" type="line"/>
      <point x="412" y="302" type="line"/>
      <point x="412" y="302"/>
      <point x="445" y="336"/>
      <point x="530" y="336" type="curve"/>
      <point x="617" y="336"/>
      <point x="672" y="287"/>
      <point x="672" y="215" type="curve" smooth="yes"/>
      <point x="672" y="143"/>
      <point x="617" y="92"/>
      <point x="530" y="92" type="curve" smooth="yes"/>
      <point x="359" y="92"/>
      <point x="370" y="243"/>
      <point x="370" y="243" type="curve"/>
      <point x="274" y="215" type="line"/>
      <point x="274" y="215"/>
      <point x="281" y="21"/>
      <point x="530" y="21" type="curve"/>
      <point x="674" y="21"/>
      <point x="771" y="92"/>
    </contour>
  </outline>
</glyph>
<glyph name="five.susp_prop" format="1">
  <advance width="800"/>
  <outline>
    <contour>
      <point x="740" y="32" type="curve"/>
      <point x="740" y="192"/>
      <point x="606" y="300"/>
      <point x="457" y="300" type="curve" smooth="yes"/>
      <point x="295" y="300"/>
      <point x="244" y="199"/>
      <point x="244" y="199" type="curve"/>
      <point x="291" y="480" type="line"/>
      <point x="704" y="480" type="line"/>
      <point x="704" y="555" type="line"/>
      <point x="190" y="555" type="line"/>
      <point x="119" y="153" type="line"/>
      <point x="242" y="153" type="line"/>
      <point x="242" y="153"/>
      <point x="293" y="211"/>
      <point x="406" y="211" type="curve"/>
      <point x="536" y="211"/>
      <point x="613" y="142"/>
      <point x="613" y="32" type="curve" smooth="yes"/>
      <point x="613" y="-78"/>
      <point x="536" y="-148"/>
      <point x="406" y="-148" type="curve" smooth="yes"/>
      <point x="168" y="-148"/>
      <point x="174" y="71"/>
      <point x="174" y="71" type="curve"/>
      <point x="50" y="32" type="line"/>
      <point x="50" y="32"/>
      <point x="60" y="-237"/>
      <point x="406" y="-237" type="curve"/>
      <point x="606" y="-237"/>
      <point x="740" y="-138"/>
    </contour>
  </outline>
</glyph>
<glyph name="four.susp_prop" format="1">
  <advance width="800"/>
  <outline>
    <contour>
      <point x="40" y="0" type="line"/>
      <point x="504" y="0" type="line"/>
      <point x="504" y="-222" type="line"/>
      <point x="624" y="-222" type="line"/>
      <point x="624" y="0" type="line"/>
      <point x="790" y="0" type="line"/>
      <point x="790" y="75" type="line"/>
      <point x="624" y="75" type="line"/>
      <point x="624" y="555" type="line"/>
      <point x="462" y="555" type="line"/>
      <point x="40" y="115" type="line"/>
    </contour>
    <contour>
      <point x="504" y="460" type="line"/>
      <point x="504" y="75" type="line"/>
      <point x="141" y="75" type="line"/>
    </contour>
  </outline>
</glyph>
<glyph name="grave.case" format="1">
  <advance width="727"/>
  <outline>
    <contour>
      <point x="380" y="821" type="line"/>
      <point x="579" y="633" type="line"/>
      <point x="646" y="633" type="line"/>
      <point x="530" y="821" type="line"/>
    </contour>
    <contour>
      <point x="601" y="613" type="move" name="_top"/>
    </contour>
  </outline>
</glyph>
<glyph name="nine.alt" format="1">
  <advance width="1064"/>
  <outline>
    <contour>
      <point x="60" y="311" type="curve" smooth="yes"/>
      <point x="60" y="46"/>
      <point x="267" y="-161"/>
      <point x="532" y="-161" type="curve" smooth="yes"/>
      <point x="797" y="-161"/>
      <point x="1004" y="46"/>
      <point x="1004" y="311" type="curve" smooth="yes"/>
      <point x="1004" y="576"/>
      <point x="797" y="783"/>
      <point x="532" y="783" type="curve" smooth="yes"/>
      <point x="267" y="783"/>
      <point x="60" y="576"/>
    </contour>
    <contour>
      <point x="116" y="310" type="curve" smooth="yes"/>
      <point x="116" y="541"/>
      <point x="301" y="726"/>
      <point x="532" y="726" type="curve" smooth="yes"/>
      <point x="763" y="726"/>
      <point x="948" y="541"/>
      <point x="948" y="310" type="curve" smooth="yes"/>
      <point x="948" y="79"/>
      <point x="763" y="-106"/>
      <point x="532" y="-106" type="curve" smooth="yes"/>
      <point x="301" y="-106"/>
      <point x="116" y="79"/>
    </contour>
    <contour>
      <point x="788" y="310" type="curve" smooth="yes"/>
      <point x="788" y="479"/>
      <point x="695" y="601"/>
      <point x="531" y="601" type="curve" smooth="yes"/>
      <point x="397" y="601"/>
      <point x="298" y="523"/>
      <point x="298" y="415" type="curve" smooth="yes"/>
      <point x="298" y="286"/>
      <point x="397" y="230"/>
      <point x="494" y="230" type="curve" smooth="yes"/>
      <point x="610" y="230"/>
      <point x="669" y="285"/>
      <point x="687" y="348" type="curve"/>
      <point x="688" y="336"/>
      <point x="689" y="323"/>
      <point x="689" y="310" type="curve" smooth="yes"/>
      <point x="689" y="187"/>
      <point x="636" y="92"/>
      <point x="529" y="92" type="curve"/>
      <point x="412" y="92"/>
      <point x="401" y="210"/>
      <point x="401" y="210" type="curve"/>
      <point x="305" y="181" type="line"/>
      <point x="305" y="181"/>
      <point x="340" y="21"/>
      <point x="529" y="21" type="curve"/>
      <point x="692" y="21"/>
      <point x="788" y="143"/>
    </contour>
    <contour>
      <point x="397" y="415" type="curve" smooth="yes"/>
      <point x="397" y="480"/>
      <point x="439" y="529"/>
      <point x="531" y="529" type="curve" smooth="yes"/>
      <point x="607" y="529"/>
      <point x="655" y="481"/>
      <point x="676" y="410" type="curve"/>
      <point x="662" y="351"/>
      <point x="610" y="302"/>
      <point x="531" y="302" type="curve" smooth="yes"/>
      <point x="439" y="302"/>
      <point x="397" y="351"/>
    </contour>
  </outline>
</glyph>
<glyph name="one.susp_prop" format="1">
  <advance width="570"/>
  <outline>
    <contour>
      <point x="480" y="0" type="line"/>
      <point x="480" y="555" type="line"/>
      <point x="360" y="555" type="line"/>
      <point x="360" y="403"/>
      <point x="259" y="357"/>
      <point x="60" y="357" type="curve"/>
      <point x="60" y="268" type="line"/>
      <point x="308" y="268"/>
      <point x="359" y="320"/>
      <point x="359" y="470" type="curve"/>
      <point x="360" y="0" type="line"/>
    </contour>
  </outline>
</glyph>
<glyph name="six.alt" format="1">
  <advance width="1064"/>
  <outline>
    <contour>
      <point x="60" y="311" type="curve" smooth="yes"/>
      <point x="60" y="46"/>
      <point x="267" y="-161"/>
      <point x="532" y="-161" type="curve" smooth="yes"/>
      <point x="797" y="-161"/>
      <point x="1004" y="46"/>
      <point x="1004" y="311" type="curve" smooth="yes"/>
      <point x="1004" y="576"/>
      <point x="797" y="783"/>
      <point x="532" y="783" type="curve" smooth="yes"/>
      <point x="267" y="783"/>
      <point x="60" y="576"/>
    </contour>
    <contour>
      <point x="116" y="310" type="curve" smooth="yes"/>
      <point x="116" y="541"/>
      <point x="301" y="726"/>
      <point x="532" y="726" type="curve" smooth="yes"/>
      <point x="763" y="726"/>
      <point x="948" y="541"/>
      <point x="948" y="310" type="curve" smooth="yes"/>
      <point x="948" y="79"/>
      <point x="763" y="-106"/>
      <point x="532" y="-106" type="curve" smooth="yes"/>
      <point x="301" y="-106"/>
      <point x="116" y="79"/>
    </contour>
    <contour>
      <point x="765" y="206" type="curve" smooth="yes"/>
      <point x="765" y="336"/>
      <point x="666" y="391"/>
      <point x="569" y="391" type="curve" smooth="yes"/>
      <point x="476" y="391"/>
      <point x="397" y="352"/>
      <point x="376" y="274" type="curve"/>
      <point x="375" y="286"/>
      <point x="374" y="298"/>
      <point x="374" y="311" type="curve" smooth="yes"/>
      <point x="374" y="434"/>
      <point x="427" y="529"/>
      <point x="534" y="529" type="curve"/>
      <point x="651" y="529"/>
      <point x="662" y="412"/>
      <point x="662" y="412" type="curve"/>
      <point x="758" y="441" type="line"/>
      <point x="758" y="441"/>
      <point x="723" y="601"/>
      <point x="534" y="601" type="curve"/>
      <point x="371" y="601"/>
      <point x="275" y="479"/>
      <point x="275" y="311" type="curve" smooth="yes"/>
      <point x="275" y="143"/>
      <point x="368" y="21"/>
      <point x="532" y="21" type="curve" smooth="yes"/>
      <point x="666" y="21"/>
      <point x="765" y="98"/>
    </contour>
    <contour>
      <point x="532" y="320" type="curve" smooth="yes"/>
      <point x="624" y="320"/>
      <point x="666" y="271"/>
      <point x="666" y="206" type="curve" smooth="yes"/>
      <point x="666" y="141"/>
      <point x="624" y="92"/>
      <point x="532" y="92" type="curve" smooth="yes"/>
      <point x="455" y="92"/>
      <point x="408" y="140"/>
      <point x="387" y="212" type="curve"/>
      <point x="401" y="274"/>
      <point x="455" y="320"/>
    </contour>
  </outline>
</glyph>
<glyph name="six.susp_prop" format="1">
  <advance width="800"/>
  <outline>
    <contour>
      <point x="740" y="243" type="curve" smooth="yes"/>
      <point x="740" y="423"/>
      <point x="603" y="500"/>
      <point x="468" y="500" type="curve" smooth="yes"/>
      <point x="317" y="500"/>
      <point x="223" y="425"/>
      <point x="193" y="307" type="curve"/>
      <point x="189" y="333"/>
      <point x="187" y="361"/>
      <point x="187" y="389" type="curve" smooth="yes"/>
      <point x="187" y="560"/>
      <point x="271" y="702"/>
      <point x="420" y="702" type="curve"/>
      <point x="592" y="702"/>
      <point x="607" y="529"/>
      <point x="607" y="529" type="curve"/>
      <point x="730" y="569" type="line"/>
      <point x="730" y="569"/>
      <point x="682" y="791"/>
      <point x="420" y="791" type="curve"/>
      <point x="193" y="791"/>
      <point x="60" y="622"/>
      <point x="60" y="389" type="curve" smooth="yes"/>
      <point x="60" y="155"/>
      <point x="189" y="-14"/>
      <point x="416" y="-14" type="curve" smooth="yes"/>
      <point x="603" y="-14"/>
      <point x="740" y="93"/>
    </contour>
    <contour>
      <point x="416" y="411" type="curve" smooth="yes"/>
      <point x="545" y="411"/>
      <point x="613" y="343"/>
      <point x="613" y="243" type="curve" smooth="yes"/>
      <point x="613" y="143"/>
      <point x="545" y="75"/>
      <point x="416" y="75" type="curve" smooth="yes"/>
      <point x="323" y="75"/>
      <point x="257" y="130"/>
      <point x="221" y="213" type="curve"/>
      <point x="214" y="306"/>
      <point x="278" y="411"/>
    </contour>
  </outline>
</glyph>
<glyph name="two.susp_prop" format="1">
  <advance width="800"/>
  <outline>
    <contour>
      <point x="105" y="374" type="curve"/>
      <point x="105" y="280"/>
      <point x="160" y="241"/>
      <point x="160" y="241" type="curve"/>
      <point x="294" y="280" type="line"/>
      <point x="294" y="280"/>
      <point x="229" y="301"/>
      <point x="229" y="372" type="curve"/>
      <point x="229" y="439"/>
      <point x="280" y="480"/>
      <point x="363" y="480" type="curve"/>
      <point x="464" y="480"/>
      <point x="518" y="418"/>
      <point x="518" y="333" type="curve"/>
      <point x="518" y="169"/>
      <point x="295" y="120"/>
      <point x="90" y="85" type="curve"/>
      <point x="90" y="0" type="line"/>
      <point x="670" y="0" type="line"/>
      <point x="670" y="75" type="line"/>
      <point x="300" y="75" type="line"/>
      <point x="474" y="116"/>
      <point x="644" y="192"/>
      <point x="644" y="358" type="curve" smooth="yes"/>
      <point x="644" y="472"/>
      <point x="566" y="569"/>
      <point x="378" y="569" type="curve"/>
      <point x="221" y="569"/>
      <point x="105" y="494"/>
    </contour>
  </outline>
</glyph>
